<svg version="1.1" viewBox="0.0 0.0 600.0 371.0" fill="none" stroke="none" stroke-linecap="square" stroke-miterlimit="10" width="600" height="371" xmlns:xlink="http://www.w3.org/1999/xlink" xmlns="http://www.w3.org/2000/svg"><path fill="#ffffff" d="M0 0L600.0 0L600.0 371.0L0 371.0L0 0Z" fill-rule="nonzero"/><path fill="#ffffff" d="M64.63694 44.5L581.45 44.5L581.45 335.5L64.63694 335.5L64.63694 44.5Z" fill-rule="nonzero"/><path stroke="#cccccc" stroke-width="1.0" stroke-linecap="butt" d="M323.0 190.0C323.0 190.0 323.0 190.0 323.0 190.0C323.0 190.0 323.0 190.0 323.0 190.0C323.0 190.0 323.0 190.0 323.0 190.0C323.0 190.0 323.0 190.0 323.0 190.0" fill-rule="nonzero"/><path fill="#000000" d="M303.0625 183.35938Q303.0625 185.26562 302.40625 186.20312Q301.76562 187.125 300.375 187.125Q299.01562 187.125 298.35938 186.21875Q297.70312 185.3125 297.67188 183.5L297.67188 182.0625Q297.67188 180.17188 298.3125 179.26562Q298.96875 178.34375 300.35938 178.34375Q301.73438 178.34375 302.39062 179.23438Q303.04688 180.10938 303.0625 181.95312L303.0625 183.35938ZM301.96875 181.875Q301.96875 180.5 301.57812 179.875Q301.20312 179.23438 300.35938 179.23438Q299.53125 179.23438 299.14062 179.875Q298.76562 180.5 298.76562 181.79688L298.76562 183.53125Q298.76562 184.90625 299.15625 185.57812Q299.5625 186.23438 300.375 186.23438Q301.17188 186.23438 301.5625 185.60938Q301.95312 184.98438 301.96875 183.65625L301.96875 181.875ZM304.84375 186.4375Q304.84375 186.15625 305.0 185.96875Q305.17188 185.78125 305.5 185.78125Q305.84375 185.78125 306.01562 185.96875Q306.1875 186.15625 306.1875 186.4375Q306.1875 186.70312 306.01562 186.89062Q305.84375 187.0625 305.5 187.0625Q305.17188 187.0625 305.0 186.89062Q304.84375 186.70312 304.84375 186.4375ZM313.0625 183.35938Q313.0625 185.26562 312.40625 186.20312Q311.76562 187.125 310.375 187.125Q309.01562 187.125 308.35938 186.21875Q307.70312 185.3125 307.67188 183.5L307.67188 182.0625Q307.67188 180.17188 308.3125 179.26562Q308.96875 178.34375 310.35938 178.34375Q311.73438 178.34375 312.39062 179.23438Q313.04688 180.10938 313.0625 181.95312L313.0625 183.35938ZM311.96875 181.875Q311.96875 180.5 311.57812 179.875Q311.20312 179.23438 310.35938 179.23438Q309.53125 179.23438 309.14062 179.875Q308.76562 180.5 308.76562 181.79688L308.76562 183.53125Q308.76562 184.90625 309.15625 185.57812Q309.5625 186.23438 310.375 186.23438Q311.17188 186.23438 311.5625 185.60938Q311.95312 184.98438 311.96875 183.65625L311.96875 181.875ZM320.0625 183.35938Q320.0625 185.26562 319.40625 186.20312Q318.76562 187.125 317.375 187.125Q316.01562 187.125 315.35938 186.21875Q314.70312 185.3125 314.67188 183.5L314.67188 182.0625Q314.67188 180.17188 315.3125 179.26562Q315.96875 178.34375 317.35938 178.34375Q318.73438 178.34375 319.39062 179.23438Q320.04688 180.10938 320.0625 181.95312L320.0625 183.35938ZM318.96875 181.875Q318.96875 180.5 318.57812 179.875Q318.20312 179.23438 317.35938 179.23438Q316.53125 179.23438 316.14062 179.875Q315.76562 180.5 315.76562 181.79688L315.76562 183.53125Q315.76562 184.90625 316.15625 185.57812Q316.5625 186.23438 317.375 186.23438Q318.17188 186.23438 318.5625 185.60938Q318.95312 184.98438 318.96875 183.65625L318.96875 181.875Z" fill-rule="nonzero"/><path stroke="#cccccc" stroke-width="1.0" stroke-linecap="butt" d="M345.7 190.0C345.7 177.46313 335.53687 167.3 323.0 167.3C310.46313 167.3 300.3 177.46313 300.3 190.0C300.3 202.53687 310.46313 212.7 323.0 212.7C335.53687 212.7 345.7 202.53687 345.7 190.0" fill-rule="nonzero"/><path fill="#000000" d="M289.29688 164.3L283.70312 164.3L283.70312 163.51875L286.65625 160.2375Q287.3125 159.4875 287.5625 159.03438Q287.8125 158.56563 287.8125 158.06563Q287.8125 157.39375 287.40625 156.97188Q287.01562 156.53438 286.32812 156.53438Q285.53125 156.53438 285.07812 157.00313Q284.625 157.45625 284.625 158.28438L283.54688 158.28438Q283.54688 157.09688 284.29688 156.37813Q285.0625 155.64375 286.32812 155.64375Q287.53125 155.64375 288.21875 156.26875Q288.90625 156.89375 288.90625 157.94063Q288.90625 159.19063 287.29688 160.94063L285.01562 163.40938L289.29688 163.40938L289.29688 164.3ZM291.20312 160.01875L291.64062 155.76875L296.01562 155.76875L296.01562 156.76875L292.5625 156.76875L292.29688 159.09688Q292.9375 158.72188 293.73438 158.72188Q294.89062 158.72188 295.57812 159.50313Q296.26562 160.26875 296.26562 161.58125Q296.26562 162.89375 295.54688 163.65938Q294.84375 164.425 293.5625 164.425Q292.4375 164.425 291.71875 163.8Q291.0 163.15938 290.90625 162.05L291.92188 162.05Q292.03125 162.78438 292.45312 163.15938Q292.875 163.53438 293.5625 163.53438Q294.3125 163.53438 294.75 163.01875Q295.1875 162.50313 295.1875 161.59688Q295.1875 160.7375 294.71875 160.22188Q294.25 159.70625 293.46875 159.70625Q292.76562 159.70625 292.35938 160.00313L292.07812 160.2375L291.20312 160.01875ZM303.0625 160.65938Q303.0625 162.56563 302.40625 163.50313Q301.76562 164.425 300.375 164.425Q299.01562 164.425 298.35938 163.51875Q297.70312 162.6125 297.67188 160.8L297.67188 159.3625Q297.67188 157.47188 298.3125 156.56563Q298.96875 155.64375 300.35938 155.64375Q301.73438 155.64375 302.39062 156.53438Q303.04688 157.40938 303.0625 159.25313L303.0625 160.65938ZM301.96875 159.175Q301.96875 157.8 301.57812 157.175Q301.20312 156.53438 300.35938 156.53438Q299.53125 156.53438 299.14062 157.175Q298.76562 157.8 298.76562 159.09688L298.76562 160.83125Q298.76562 162.20625 299.15625 162.87813Q299.5625 163.53438 300.375 163.53438Q301.17188 163.53438 301.5625 162.90938Q301.95312 162.28438 301.96875 160.95625L301.96875 159.175ZM304.84375 163.7375Q304.84375 163.45625 305.0 163.26875Q305.17188 163.08125 305.5 163.08125Q305.84375 163.08125 306.01562 163.26875Q306.1875 163.45625 306.1875 163.7375Q306.1875 164.00313 306.01562 164.19063Q305.84375 164.3625 305.5 164.3625Q305.17188 164.3625 305.0 164.19063Q304.84375 164.00313 304.84375 163.7375ZM313.0625 160.65938Q313.0625 162.56563 312.40625 163.50313Q311.76562 164.425 310.375 164.425Q309.01562 164.425 308.35938 163.51875Q307.70312 162.6125 307.67188 160.8L307.67188 159.3625Q307.67188 157.47188 308.3125 156.56563Q308.96875 155.64375 310.35938 155.64375Q311.73438 155.64375 312.39062 156.53438Q313.04688 157.40938 313.0625 159.25313L313.0625 160.65938ZM311.96875 159.175Q311.96875 157.8 311.57812 157.175Q311.20312 156.53438 310.35938 156.53438Q309.53125 156.53438 309.14062 157.175Q308.76562 157.8 308.76562 159.09688L308.76562 160.83125Q308.76562 162.20625 309.15625 162.87813Q309.5625 163.53438 310.375 163.53438Q311.17188 163.53438 311.5625 162.90938Q311.95312 162.28438 311.96875 160.95625L311.96875 159.175ZM320.0625 160.65938Q320.0625 162.56563 319.40625 163.50313Q318.76562 164.425 317.375 164.425Q316.01562 164.425 315.35938 163.51875Q314.70312 162.6125 314.67188 160.8L314.67188 159.3625Q314.67188 157.47188 315.3125 156.56563Q315.96875 155.64375 317.35938 155.64375Q318.73438 155.64375 319.39062 156.53438Q320.04688 157.40938 320.0625 159.25313L320.0625 160.65938ZM318.96875 159.175Q318.96875 157.8 318.57812 157.175Q318.20312 156.53438 317.35938 156.53438Q316.53125 156.53438 316.14062 157.175Q315.76562 157.8 315.76562 159.09688L315.76562 160.83125Q315.76562 162.20625 316.15625 162.87813Q316.5625 163.53438 317.375 163.53438Q318.17188 163.53438 318.5625 162.90938Q318.95312 162.28438 318.96875 160.95625L318.96875 159.175Z" fill-rule="nonzero"/><path stroke="#cccccc" stroke-width="1.0" stroke-linecap="butt" d="M368.4 190.0C368.4 164.92627 348.07373 144.6 323.0 144.6C297.92627 144.6 277.6 164.92627 277.6 190.0C277.6 215.07373 297.92627 235.4 323.0 235.4C348.07373 235.4 368.4 215.07373 368.4 190.0" fill-rule="nonzero"/><path fill="#000000" d="M284.20312 137.31876L284.64062 133.06876L289.01562 133.06876L289.01562 134.06876L285.5625 134.06876L285.29688 136.39688Q285.9375 136.02188 286.73438 136.02188Q287.89062 136.02188 288.57812 136.80313Q289.26562 137.56876 289.26562 138.88126Q289.26562 140.19376 288.54688 140.95938Q287.84375 141.725 286.5625 141.725Q285.4375 141.725 284.71875 141.1Q284.0 140.45938 283.90625 139.35L284.92188 139.35Q285.03125 140.08438 285.45312 140.45938Q285.875 140.83438 286.5625 140.83438Q287.3125 140.83438 287.75 140.31876Q288.1875 139.80313 288.1875 138.89688Q288.1875 138.0375 287.71875 137.52188Q287.25 137.00626 286.46875 137.00626Q285.76562 137.00626 285.35938 137.30313L285.07812 137.5375L284.20312 137.31876ZM296.0625 137.95938Q296.0625 139.86563 295.40625 140.80313Q294.76562 141.725 293.375 141.725Q292.01562 141.725 291.35938 140.81876Q290.70312 139.9125 290.67188 138.1L290.67188 136.6625Q290.67188 134.77188 291.3125 133.86563Q291.96875 132.94376 293.35938 132.94376Q294.73438 132.94376 295.39062 133.83438Q296.04688 134.70938 296.0625 136.55313L296.0625 137.95938ZM294.96875 136.475Q294.96875 135.1 294.57812 134.475Q294.20312 133.83438 293.35938 133.83438Q292.53125 133.83438 292.14062 134.475Q291.76562 135.1 291.76562 136.39688L291.76562 138.13126Q291.76562 139.50626 292.15625 140.17813Q292.5625 140.83438 293.375 140.83438Q294.17188 140.83438 294.5625 140.20938Q294.95312 139.58438 294.96875 138.25626L294.96875 136.475ZM303.0625 137.95938Q303.0625 139.86563 302.40625 140.80313Q301.76562 141.725 300.375 141.725Q299.01562 141.725 298.35938 140.81876Q297.70312 139.9125 297.67188 138.1L297.67188 136.6625Q297.67188 134.77188 298.3125 133.86563Q298.96875 132.94376 300.35938 132.94376Q301.73438 132.94376 302.39062 133.83438Q303.04688 134.70938 303.0625 136.55313L303.0625 137.95938ZM301.96875 136.475Q301.96875 135.1 301.57812 134.475Q301.20312 133.83438 300.35938 133.83438Q299.53125 133.83438 299.14062 134.475Q298.76562 135.1 298.76562 136.39688L298.76562 138.13126Q298.76562 139.50626 299.15625 140.17813Q299.5625 140.83438 300.375 140.83438Q301.17188 140.83438 301.5625 140.20938Q301.95312 139.58438 301.96875 138.25626L301.96875 136.475ZM304.84375 141.0375Q304.84375 140.75626 305.0 140.56876Q305.17188 140.38126 305.5 140.38126Q305.84375 140.38126 306.01562 140.56876Q306.1875 140.75626 306.1875 141.0375Q306.1875 141.30313 306.01562 141.49063Q305.84375 141.6625 305.5 141.6625Q305.17188 141.6625 305.0 141.49063Q304.84375 141.30313 304.84375 141.0375ZM313.0625 137.95938Q313.0625 139.86563 312.40625 140.80313Q311.76562 141.725 310.375 141.725Q309.01562 141.725 308.35938 140.81876Q307.70312 139.9125 307.67188 138.1L307.67188 136.6625Q307.67188 134.77188 308.3125 133.86563Q308.96875 132.94376 310.35938 132.94376Q311.73438 132.94376 312.39062 133.83438Q313.04688 134.70938 313.0625 136.55313L313.0625 137.95938ZM311.96875 136.475Q311.96875 135.1 311.57812 134.475Q311.20312 133.83438 310.35938 133.83438Q309.53125 133.83438 309.14062 134.475Q308.76562 135.1 308.76562 136.39688L308.76562 138.13126Q308.76562 139.50626 309.15625 140.17813Q309.5625 140.83438 310.375 140.83438Q311.17188 140.83438 311.5625 140.20938Q311.95312 139.58438 311.96875 138.25626L311.96875 136.475ZM320.0625 137.95938Q320.0625 139.86563 319.40625 140.80313Q318.76562 141.725 317.375 141.725Q316.01562 141.725 315.35938 140.81876Q314.70312 139.9125 314.67188 138.1L314.67188 136.6625Q314.67188 134.77188 315.3125 133.86563Q315.96875 132.94376 317.35938 132.94376Q318.73438 132.94376 319.39062 133.83438Q320.04688 134.70938 320.0625 136.55313L320.0625 137.95938ZM318.96875 136.475Q318.96875 135.1 318.57812 134.475Q318.20312 133.83438 317.35938 133.83438Q316.53125 133.83438 316.14062 134.475Q315.76562 135.1 315.76562 136.39688L315.76562 138.13126Q315.76562 139.50626 316.15625 140.17813Q316.5625 140.83438 317.375 140.83438Q318.17188 140.83438 318.5625 140.20938Q318.95312 139.58438 318.96875 138.25626L318.96875 136.475Z" fill-rule="nonzero"/><path stroke="#cccccc" stroke-width="1.0" stroke-linecap="butt" d="M391.1 190.0C391.1 152.3894 360.6106 121.9 323.0 121.9C285.3894 121.9 254.9 152.3894 254.9 190.0C254.9 227.6106 285.3894 258.1 323.0 258.1C360.6106 258.1 391.1 227.6106 391.1 190.0" fill-rule="nonzero"/><path fill="#000000" d="M289.21875 110.97813L285.6875 118.9L284.54688 118.9L288.0625 111.25938L283.45312 111.25938L283.45312 110.36875L289.21875 110.36875L289.21875 110.97813ZM291.20312 114.61875L291.64062 110.36875L296.01562 110.36875L296.01562 111.36875L292.5625 111.36875L292.29688 113.69688Q292.9375 113.32188 293.73438 113.32188Q294.89062 113.32188 295.57812 114.10313Q296.26562 114.86875 296.26562 116.18125Q296.26562 117.49375 295.54688 118.25938Q294.84375 119.025 293.5625 119.025Q292.4375 119.025 291.71875 118.4Q291.0 117.75938 290.90625 116.65L291.92188 116.65Q292.03125 117.38438 292.45312 117.75938Q292.875 118.13438 293.5625 118.13438Q294.3125 118.13438 294.75 117.61875Q295.1875 117.10313 295.1875 116.19688Q295.1875 115.3375 294.71875 114.82188Q294.25 114.30625 293.46875 114.30625Q292.76562 114.30625 292.35938 114.60313L292.07812 114.8375L291.20312 114.61875ZM303.0625 115.25938Q303.0625 117.16563 302.40625 118.10313Q301.76562 119.025 300.375 119.025Q299.01562 119.025 298.35938 118.11875Q297.70312 117.2125 297.67188 115.4L297.67188 113.9625Q297.67188 112.07188 298.3125 111.16563Q298.96875 110.24375 300.35938 110.24375Q301.73438 110.24375 302.39062 111.13438Q303.04688 112.00938 303.0625 113.85313L303.0625 115.25938ZM301.96875 113.775Q301.96875 112.4 301.57812 111.775Q301.20312 111.13438 300.35938 111.13438Q299.53125 111.13438 299.14062 111.775Q298.76562 112.4 298.76562 113.69688L298.76562 115.43125Q298.76562 116.80625 299.15625 117.47813Q299.5625 118.13438 300.375 118.13438Q301.17188 118.13438 301.5625 117.50938Q301.95312 116.88438 301.96875 115.55625L301.96875 113.775ZM304.84375 118.3375Q304.84375 118.05625 305.0 117.86875Q305.17188 117.68125 305.5 117.68125Q305.84375 117.68125 306.01562 117.86875Q306.1875 118.05625 306.1875 118.3375Q306.1875 118.60313 306.01562 118.79063Q305.84375 118.9625 305.5 118.9625Q305.17188 118.9625 305.0 118.79063Q304.84375 118.60313 304.84375 118.3375ZM313.0625 115.25938Q313.0625 117.16563 312.40625 118.10313Q311.76562 119.025 310.375 119.025Q309.01562 119.025 308.35938 118.11875Q307.70312 117.2125 307.67188 115.4L307.67188 113.9625Q307.67188 112.07188 308.3125 111.16563Q308.96875 110.24375 310.35938 110.24375Q311.73438 110.24375 312.39062 111.13438Q313.04688 112.00938 313.0625 113.85313L313.0625 115.25938ZM311.96875 113.775Q311.96875 112.4 311.57812 111.775Q311.20312 111.13438 310.35938 111.13438Q309.53125 111.13438 309.14062 111.775Q308.76562 112.4 308.76562 113.69688L308.76562 115.43125Q308.76562 116.80625 309.15625 117.47813Q309.5625 118.13438 310.375 118.13438Q311.17188 118.13438 311.5625 117.50938Q311.95312 116.88438 311.96875 115.55625L311.96875 113.775ZM320.0625 115.25938Q320.0625 117.16563 319.40625 118.10313Q318.76562 119.025 317.375 119.025Q316.01562 119.025 315.35938 118.11875Q314.70312 117.2125 314.67188 115.4L314.67188 113.9625Q314.67188 112.07188 315.3125 111.16563Q315.96875 110.24375 317.35938 110.24375Q318.73438 110.24375 319.39062 111.13438Q320.04688 112.00938 320.0625 113.85313L320.0625 115.25938ZM318.96875 113.775Q318.96875 112.4 318.57812 111.775Q318.20312 111.13438 317.35938 111.13438Q316.53125 111.13438 316.14062 111.775Q315.76562 112.4 315.76562 113.69688L315.76562 115.43125Q315.76562 116.80625 316.15625 117.47813Q316.5625 118.13438 317.375 118.13438Q318.17188 118.13438 318.5625 117.50938Q318.95312 116.88438 318.96875 115.55625L318.96875 113.775Z" fill-rule="nonzero"/><path stroke="#cccccc" stroke-width="1.0" stroke-linecap="butt" d="M413.8 190.0C413.8 139.85254 373.14746 99.2 323.0 99.2C272.85254 99.2 232.2 139.85254 232.2 190.0C232.2 240.14746 272.85254 280.8 323.0 280.8C373.14746 280.8 413.8 240.14746 413.8 190.0" fill-rule="nonzero"/><path fill="#000000" d="M278.26562 96.2L277.1875 96.2L277.1875 88.98125L275.0 89.77812L275.0 88.79375L278.10938 87.62187L278.26562 87.62187L278.26562 96.2ZM281.78125 97.90312L281.17188 97.48125Q281.71875 96.71562 281.75 95.8875L281.75 94.91875L282.8125 94.91875L282.8125 95.7625Q282.8125 96.35625 282.51562 96.95Q282.21875 97.54375 281.78125 97.90312ZM289.0625 92.55937Q289.0625 94.46562 288.40625 95.40312Q287.76562 96.325 286.375 96.325Q285.01562 96.325 284.35938 95.41875Q283.70312 94.5125 283.67188 92.7L283.67188 91.2625Q283.67188 89.37187 284.3125 88.46562Q284.96875 87.54375 286.35938 87.54375Q287.73438 87.54375 288.39062 88.43437Q289.04688 89.30937 289.0625 91.15312L289.0625 92.55937ZM287.96875 91.075Q287.96875 89.7 287.57812 89.075Q287.20312 88.43437 286.35938 88.43437Q285.53125 88.43437 285.14062 89.075Q284.76562 89.7 284.76562 90.99687L284.76562 92.73125Q284.76562 94.10625 285.15625 94.77812Q285.5625 95.43437 286.375 95.43437Q287.17188 95.43437 287.5625 94.80937Q287.95312 94.18437 287.96875 92.85625L287.96875 91.075ZM296.0625 92.55937Q296.0625 94.46562 295.40625 95.40312Q294.76562 96.325 293.375 96.325Q292.01562 96.325 291.35938 95.41875Q290.70312 94.5125 290.67188 92.7L290.67188 91.2625Q290.67188 89.37187 291.3125 88.46562Q291.96875 87.54375 293.35938 87.54375Q294.73438 87.54375 295.39062 88.43437Q296.04688 89.30937 296.0625 91.15312L296.0625 92.55937ZM294.96875 91.075Q294.96875 89.7 294.57812 89.075Q294.20312 88.43437 293.35938 88.43437Q292.53125 88.43437 292.14062 89.075Q291.76562 89.7 291.76562 90.99687L291.76562 92.73125Q291.76562 94.10625 292.15625 94.77812Q292.5625 95.43437 293.375 95.43437Q294.17188 95.43437 294.5625 94.80937Q294.95312 94.18437 294.96875 92.85625L294.96875 91.075ZM303.0625 92.55937Q303.0625 94.46562 302.40625 95.40312Q301.76562 96.325 300.375 96.325Q299.01562 96.325 298.35938 95.41875Q297.70312 94.5125 297.67188 92.7L297.67188 91.2625Q297.67188 89.37187 298.3125 88.46562Q298.96875 87.54375 300.35938 87.54375Q301.73438 87.54375 302.39062 88.43437Q303.04688 89.30937 303.0625 91.15312L303.0625 92.55937ZM301.96875 91.075Q301.96875 89.7 301.57812 89.075Q301.20312 88.43437 300.35938 88.43437Q299.53125 88.43437 299.14062 89.075Q298.76562 89.7 298.76562 90.99687L298.76562 92.73125Q298.76562 94.10625 299.15625 94.77812Q299.5625 95.43437 300.375 95.43437Q301.17188 95.43437 301.5625 94.80937Q301.95312 94.18437 301.96875 92.85625L301.96875 91.075ZM304.84375 95.6375Q304.84375 95.35625 305.0 95.16875Q305.17188 94.98125 305.5 94.98125Q305.84375 94.98125 306.01562 95.16875Q306.1875 95.35625 306.1875 95.6375Q306.1875 95.90312 306.01562 96.09062Q305.84375 96.2625 305.5 96.2625Q305.17188 96.2625 305.0 96.09062Q304.84375 95.90312 304.84375 95.6375ZM313.0625 92.55937Q313.0625 94.46562 312.40625 95.40312Q311.76562 96.325 310.375 96.325Q309.01562 96.325 308.35938 95.41875Q307.70312 94.5125 307.67188 92.7L307.67188 91.2625Q307.67188 89.37187 308.3125 88.46562Q308.96875 87.54375 310.35938 87.54375Q311.73438 87.54375 312.39062 88.43437Q313.04688 89.30937 313.0625 91.15312L313.0625 92.55937ZM311.96875 91.075Q311.96875 89.7 311.57812 89.075Q311.20312 88.43437 310.35938 88.43437Q309.53125 88.43437 309.14062 89.075Q308.76562 89.7 308.76562 90.99687L308.76562 92.73125Q308.76562 94.10625 309.15625 94.77812Q309.5625 95.43437 310.375 95.43437Q311.17188 95.43437 311.5625 94.80937Q311.95312 94.18437 311.96875 92.85625L311.96875 91.075ZM320.0625 92.55937Q320.0625 94.46562 319.40625 95.40312Q318.76562 96.325 317.375 96.325Q316.01562 96.325 315.35938 95.41875Q314.70312 94.5125 314.67188 92.7L314.67188 91.2625Q314.67188 89.37187 315.3125 88.46562Q315.96875 87.54375 317.35938 87.54375Q318.73438 87.54375 319.39062 88.43437Q320.04688 89.30937 320.0625 91.15312L320.0625 92.55937ZM318.96875 91.075Q318.96875 89.7 318.57812 89.075Q318.20312 88.43437 317.35938 88.43437Q316.53125 88.43437 316.14062 89.075Q315.76562 89.7 315.76562 90.99687L315.76562 92.73125Q315.76562 94.10625 316.15625 94.77812Q316.5625 95.43437 317.375 95.43437Q318.17188 95.43437 318.5625 94.80937Q318.95312 94.18437 318.96875 92.85625L318.96875 91.075Z" fill-rule="nonzero"/><path stroke="#cccccc" stroke-width="1.0" stroke-linecap="butt" d="M436.5 190.0C436.5 127.31568 385.68433 76.5 323.0 76.5C260.31567 76.5 209.5 127.31568 209.5 190.0C209.5 252.68433 260.31567 303.5 323.0 303.5C385.68433 303.5 436.5 252.68433 436.5 190.0" fill-rule="nonzero"/><path fill="#000000" d="M278.26562 73.5L277.1875 73.5L277.1875 66.28125L275.0 67.078125L275.0 66.09375L278.10938 64.921875L278.26562 64.921875L278.26562 73.5ZM281.78125 75.203125L281.17188 74.78125Q281.71875 74.015625 281.75 73.1875L281.75 72.21875L282.8125 72.21875L282.8125 73.0625Q282.8125 73.65625 282.51562 74.25Q282.21875 74.84375 281.78125 75.203125ZM289.29688 73.5L283.70312 73.5L283.70312 72.71875L286.65625 69.4375Q287.3125 68.6875 287.5625 68.234375Q287.8125 67.765625 287.8125 67.265625Q287.8125 66.59375 287.40625 66.171875Q287.01562 65.734375 286.32812 65.734375Q285.53125 65.734375 285.07812 66.203125Q284.625 66.65625 284.625 67.484375L283.54688 67.484375Q283.54688 66.296875 284.29688 65.578125Q285.0625 64.84375 286.32812 64.84375Q287.53125 64.84375 288.21875 65.46875Q288.90625 66.09375 288.90625 67.140625Q288.90625 68.390625 287.29688 70.140625L285.01562 72.609375L289.29688 72.609375L289.29688 73.5ZM291.20312 69.21875L291.64062 64.96875L296.01562 64.96875L296.01562 65.96875L292.5625 65.96875L292.29688 68.296875Q292.9375 67.921875 293.73438 67.921875Q294.89062 67.921875 295.57812 68.703125Q296.26562 69.46875 296.26562 70.78125Q296.26562 72.09375 295.54688 72.859375Q294.84375 73.625 293.5625 73.625Q292.4375 73.625 291.71875 73.0Q291.0 72.359375 290.90625 71.25L291.92188 71.25Q292.03125 71.984375 292.45312 72.359375Q292.875 72.734375 293.5625 72.734375Q294.3125 72.734375 294.75 72.21875Q295.1875 71.703125 295.1875 70.796875Q295.1875 69.9375 294.71875 69.421875Q294.25 68.90625 293.46875 68.90625Q292.76562 68.90625 292.35938 69.203125L292.07812 69.4375L291.20312 69.21875ZM303.0625 69.859375Q303.0625 71.765625 302.40625 72.703125Q301.76562 73.625 300.375 73.625Q299.01562 73.625 298.35938 72.71875Q297.70312 71.8125 297.67188 70.0L297.67188 68.5625Q297.67188 66.671875 298.3125 65.765625Q298.96875 64.84375 300.35938 64.84375Q301.73438 64.84375 302.39062 65.734375Q303.04688 66.609375 303.0625 68.453125L303.0625 69.859375ZM301.96875 68.375Q301.96875 67.0 301.57812 66.375Q301.20312 65.734375 300.35938 65.734375Q299.53125 65.734375 299.14062 66.375Q298.76562 67.0 298.76562 68.296875L298.76562 70.03125Q298.76562 71.40625 299.15625 72.078125Q299.5625 72.734375 300.375 72.734375Q301.17188 72.734375 301.5625 72.109375Q301.95312 71.484375 301.96875 70.15625L301.96875 68.375ZM304.84375 72.9375Q304.84375 72.65625 305.0 72.46875Q305.17188 72.28125 305.5 72.28125Q305.84375 72.28125 306.01562 72.46875Q306.1875 72.65625 306.1875 72.9375Q306.1875 73.203125 306.01562 73.390625Q305.84375 73.5625 305.5 73.5625Q305.17188 73.5625 305.0 73.390625Q304.84375 73.203125 304.84375 72.9375ZM313.0625 69.859375Q313.0625 71.765625 312.40625 72.703125Q311.76562 73.625 310.375 73.625Q309.01562 73.625 308.35938 72.71875Q307.70312 71.8125 307.67188 70.0L307.67188 68.5625Q307.67188 66.671875 308.3125 65.765625Q308.96875 64.84375 310.35938 64.84375Q311.73438 64.84375 312.39062 65.734375Q313.04688 66.609375 313.0625 68.453125L313.0625 69.859375ZM311.96875 68.375Q311.96875 67.0 311.57812 66.375Q311.20312 65.734375 310.35938 65.734375Q309.53125 65.734375 309.14062 66.375Q308.76562 67.0 308.76562 68.296875L308.76562 70.03125Q308.76562 71.40625 309.15625 72.078125Q309.5625 72.734375 310.375 72.734375Q311.17188 72.734375 311.5625 72.109375Q311.95312 71.484375 311.96875 70.15625L311.96875 68.375ZM320.0625 69.859375Q320.0625 71.765625 319.40625 72.703125Q318.76562 73.625 317.375 73.625Q316.01562 73.625 315.35938 72.71875Q314.70312 71.8125 314.67188 70.0L314.67188 68.5625Q314.67188 66.671875 315.3125 65.765625Q315.96875 64.84375 317.35938 64.84375Q318.73438 64.84375 319.39062 65.734375Q320.04688 66.609375 320.0625 68.453125L320.0625 69.859375ZM318.96875 68.375Q318.96875 67.0 318.57812 66.375Q318.20312 65.734375 317.35938 65.734375Q316.53125 65.734375 316.14062 66.375Q315.76562 67.0 315.76562 68.296875L315.76562 70.03125Q315.76562 71.40625 316.15625 72.078125Q316.5625 72.734375 317.375 72.734375Q318.17188 72.734375 318.5625 72.109375Q318.95312 71.484375 318.96875 70.15625L318.96875 68.375Z" fill-rule="nonzero"/><path stroke="#cccccc" stroke-width="1.0" stroke-linecap="butt" d="M323.0 190.0L323.0 77.0" fill-rule="nonzero"/><path fill="#000000" d="M285.54688 36.5L284.42188 36.5L280.125 29.921875L280.125 36.5L278.98438 36.5L278.98438 27.96875L280.125 27.96875L284.42188 34.578125L284.42188 27.96875L285.54688 27.96875L285.54688 36.5ZM291.73438 36.5Q291.64062 36.3125 291.57812 35.828125Q290.82812 36.625 289.78125 36.625Q288.84375 36.625 288.23438 36.09375Q287.64062 35.5625 287.64062 34.734375Q287.64062 33.75 288.39062 33.203125Q289.14062 32.65625 290.51562 32.65625L291.5625 32.65625L291.5625 32.15625Q291.5625 31.59375 291.21875 31.265625Q290.89062 30.921875 290.21875 30.921875Q289.64062 30.921875 289.25 31.21875Q288.85938 31.5 288.85938 31.921875L287.76562 31.921875Q287.76562 31.4375 288.09375 31.0Q288.4375 30.5625 289.01562 30.3125Q289.59375 30.046875 290.28125 30.046875Q291.39062 30.046875 292.0 30.59375Q292.625 31.140625 292.65625 32.09375L292.65625 35.015625Q292.65625 35.890625 292.875 36.40625L292.875 36.5L291.73438 36.5ZM289.9375 35.671875Q290.45312 35.671875 290.90625 35.40625Q291.35938 35.140625 291.5625 34.71875L291.5625 33.421875L290.71875 33.421875Q288.71875 33.421875 288.71875 34.59375Q288.71875 35.09375 289.0625 35.390625Q289.40625 35.671875 289.9375 35.671875ZM296.29688 28.625L296.29688 30.15625L297.46875 30.15625L297.46875 31.0L296.29688 31.0L296.29688 34.921875Q296.29688 35.3125 296.45312 35.5Q296.60938 35.6875 296.98438 35.6875Q297.17188 35.6875 297.5 35.625L297.5 36.5Q297.07812 36.625 296.67188 36.625Q295.95312 36.625 295.57812 36.1875Q295.20312 35.734375 295.20312 34.921875L295.20312 31.0L294.04688 31.0L294.04688 30.15625L295.20312 30.15625L295.20312 28.625L296.29688 28.625ZM300.0 36.5L298.92188 36.5L298.92188 30.15625L300.0 30.15625L300.0 36.5ZM298.82812 28.484375Q298.82812 28.21875 298.98438 28.03125Q299.15625 27.84375 299.46875 27.84375Q299.78125 27.84375 299.9375 28.03125Q300.10938 28.21875 300.10938 28.484375Q300.10938 28.734375 299.9375 28.921875Q299.78125 29.09375 299.46875 29.09375Q299.15625 29.09375 298.98438 28.921875Q298.82812 28.734375 298.82812 28.484375ZM303.90625 35.03125L305.48438 30.15625L306.59375 30.15625L304.3125 36.5L303.48438 36.5L301.1875 30.15625L302.29688 30.15625L303.90625 35.03125ZM310.45312 36.625Q309.15625 36.625 308.34375 35.78125Q307.54688 34.921875 307.54688 33.5L307.54688 33.3125Q307.54688 32.359375 307.90625 31.625Q308.26562 30.875 308.90625 30.46875Q309.5625 30.046875 310.3125 30.046875Q311.54688 30.046875 312.23438 30.859375Q312.92188 31.671875 312.92188 33.1875L312.92188 33.640625L308.625 33.640625Q308.65625 34.578125 309.17188 35.15625Q309.70312 35.734375 310.51562 35.734375Q311.07812 35.734375 311.46875 35.5Q311.875 35.265625 312.1875 34.875L312.84375 35.390625Q312.04688 36.625 310.45312 36.625ZM310.3125 30.9375Q309.65625 30.9375 309.20312 31.421875Q308.76562 31.890625 308.67188 32.75L311.84375 32.75L311.84375 32.671875Q311.79688 31.84375 311.39062 31.390625Q311.0 30.9375 310.3125 30.9375ZM321.70312 34.265625L318.125 34.265625L317.32812 36.5L316.17188 36.5L319.42188 27.96875L320.40625 27.96875L323.67188 36.5L322.51562 36.5L321.70312 34.265625ZM318.46875 33.34375L321.375 33.34375L319.92188 29.359375L318.46875 33.34375ZM325.84375 30.15625L325.875 30.859375Q326.5625 30.046875 327.75 30.046875Q329.07812 30.046875 329.5625 31.0625Q329.875 30.609375 330.375 30.328125Q330.89062 30.046875 331.57812 30.046875Q333.67188 30.046875 333.70312 32.25L333.70312 36.5L332.625 36.5L332.625 32.3125Q332.625 31.640625 332.3125 31.3125Q332.0 30.96875 331.26562 30.96875Q330.65625 30.96875 330.25 31.328125Q329.85938 31.6875 329.79688 32.296875L329.79688 36.5L328.71875 36.5L328.71875 32.34375Q328.71875 30.96875 327.35938 30.96875Q326.29688 30.96875 325.90625 31.875L325.90625 36.5L324.8125 36.5L324.8125 30.15625L325.84375 30.15625ZM338.45312 36.625Q337.15625 36.625 336.34375 35.78125Q335.54688 34.921875 335.54688 33.5L335.54688 33.3125Q335.54688 32.359375 335.90625 31.625Q336.26562 30.875 336.90625 30.46875Q337.5625 30.046875 338.3125 30.046875Q339.54688 30.046875 340.23438 30.859375Q340.92188 31.671875 340.92188 33.1875L340.92188 33.640625L336.625 33.640625Q336.65625 34.578125 337.17188 35.15625Q337.70312 35.734375 338.51562 35.734375Q339.07812 35.734375 339.46875 35.5Q339.875 35.265625 340.1875 34.875L340.84375 35.390625Q340.04688 36.625 338.45312 36.625ZM338.3125 30.9375Q337.65625 30.9375 337.20312 31.421875Q336.76562 31.890625 336.67188 32.75L339.84375 32.75L339.84375 32.671875Q339.79688 31.84375 339.39062 31.390625Q339.0 30.9375 338.3125 30.9375ZM344.89062 31.125Q344.64062 31.09375 344.35938 31.09375Q343.28125 31.09375 342.90625 32.0L342.90625 36.5L341.82812 36.5L341.82812 30.15625L342.875 30.15625L342.89062 30.890625Q343.42188 30.046875 344.40625 30.046875Q344.71875 30.046875 344.89062 30.125L344.89062 31.125ZM347.0 36.5L345.92188 36.5L345.92188 30.15625L347.0 30.15625L347.0 36.5ZM345.82812 28.484375Q345.82812 28.21875 345.98438 28.03125Q346.15625 27.84375 346.46875 27.84375Q346.78125 27.84375 346.9375 28.03125Q347.10938 28.21875 347.10938 28.484375Q347.10938 28.734375 346.9375 28.921875Q346.78125 29.09375 346.46875 29.09375Q346.15625 29.09375 345.98438 28.921875Q345.82812 28.734375 345.82812 28.484375ZM351.35938 35.734375Q351.9375 35.734375 352.375 35.390625Q352.8125 35.03125 352.85938 34.5L353.89062 34.5Q353.85938 35.046875 353.5 35.546875Q353.15625 36.03125 352.57812 36.328125Q352.01562 36.625 351.35938 36.625Q350.0625 36.625 349.29688 35.765625Q348.54688 34.890625 348.54688 33.390625L348.54688 33.203125Q348.54688 32.28125 348.875 31.5625Q349.21875 30.84375 349.84375 30.453125Q350.48438 30.046875 351.35938 30.046875Q352.42188 30.046875 353.125 30.6875Q353.84375 31.3125 353.89062 32.34375L352.85938 32.34375Q352.8125 31.71875 352.39062 31.328125Q351.96875 30.9375 351.35938 30.9375Q350.53125 30.9375 350.07812 31.53125Q349.625 32.125 349.625 33.25L349.625 33.453125Q349.625 34.546875 350.07812 35.140625Q350.53125 35.734375 351.35938 35.734375ZM358.73438 36.5Q358.64062 36.3125 358.57812 35.828125Q357.82812 36.625 356.78125 36.625Q355.84375 36.625 355.23438 36.09375Q354.64062 35.5625 354.64062 34.734375Q354.64062 33.75 355.39062 33.203125Q356.14062 32.65625 357.51562 32.65625L358.5625 32.65625L358.5625 32.15625Q358.5625 31.59375 358.21875 31.265625Q357.89062 30.921875 357.21875 30.921875Q356.64062 30.921875 356.25 31.21875Q355.85938 31.5 355.85938 31.921875L354.76562 31.921875Q354.76562 31.4375 355.09375 31.0Q355.4375 30.5625 356.01562 30.3125Q356.59375 30.046875 357.28125 30.046875Q358.39062 30.046875 359.0 30.59375Q359.625 31.140625 359.65625 32.09375L359.65625 35.015625Q359.65625 35.890625 359.875 36.40625L359.875 36.5L358.73438 36.5ZM356.9375 35.671875Q357.45312 35.671875 357.90625 35.40625Q358.35938 35.140625 358.5625 34.71875L358.5625 33.421875L357.71875 33.421875Q355.71875 33.421875 355.71875 34.59375Q355.71875 35.09375 356.0625 35.390625Q356.40625 35.671875 356.9375 35.671875ZM362.84375 30.15625L362.875 30.953125Q363.60938 30.046875 364.78125 30.046875Q366.79688 30.046875 366.8125 32.3125L366.8125 36.5L365.71875 36.5L365.71875 32.296875Q365.71875 31.625 365.40625 31.296875Q365.10938 30.96875 364.45312 30.96875Q363.92188 30.96875 363.51562 31.25Q363.125 31.53125 362.90625 31.984375L362.90625 36.5L361.82812 36.5L361.82812 30.15625L362.84375 30.15625Z" fill-rule="nonzero"/><path stroke="#cccccc" stroke-width="1.0" stroke-linecap="butt" d="M323.0 190.0L421.0 133.0" fill-rule="nonzero"/><path fill="#000000" d="M446.48438 115.5L446.48438 106.96875L449.28125 106.96875Q450.67188 106.96875 451.35938 107.546875Q452.0625 108.109375 452.0625 109.234375Q452.0625 109.84375 451.71875 110.3125Q451.39062 110.765625 450.79688 111.015625Q451.5 111.203125 451.89062 111.75Q452.29688 112.28125 452.29688 113.03125Q452.29688 114.1875 451.54688 114.84375Q450.8125 115.5 449.45312 115.5L446.48438 115.5ZM447.60938 111.515625L447.60938 114.578125L449.46875 114.578125Q450.26562 114.578125 450.71875 114.171875Q451.17188 113.765625 451.17188 113.046875Q451.17188 111.515625 449.48438 111.515625L447.60938 111.515625ZM447.60938 110.609375L449.3125 110.609375Q450.04688 110.609375 450.48438 110.25Q450.9375 109.875 450.9375 109.234375Q450.9375 108.53125 450.53125 108.21875Q450.125 107.890625 449.28125 107.890625L447.60938 107.890625L447.60938 110.609375ZM454.5 115.5L453.42188 115.5L453.42188 106.5L454.5 106.5L454.5 115.5ZM460.23438 115.5Q460.14062 115.3125 460.07812 114.828125Q459.32812 115.625 458.28125 115.625Q457.34375 115.625 456.73438 115.09375Q456.14062 114.5625 456.14062 113.734375Q456.14062 112.75 456.89062 112.203125Q457.64062 111.65625 459.01562 111.65625L460.0625 111.65625L460.0625 111.15625Q460.0625 110.59375 459.71875 110.265625Q459.39062 109.921875 458.71875 109.921875Q458.14062 109.921875 457.75 110.21875Q457.35938 110.5 457.35938 110.921875L456.26562 110.921875Q456.26562 110.4375 456.59375 110.0Q456.9375 109.5625 457.51562 109.3125Q458.09375 109.046875 458.78125 109.046875Q459.89062 109.046875 460.5 109.59375Q461.125 110.140625 461.15625 111.09375L461.15625 114.015625Q461.15625 114.890625 461.375 115.40625L461.375 115.5L460.23438 115.5ZM458.4375 114.671875Q458.95312 114.671875 459.40625 114.40625Q459.85938 114.140625 460.0625 113.71875L460.0625 112.421875L459.21875 112.421875Q457.21875 112.421875 457.21875 113.59375Q457.21875 114.09375 457.5625 114.390625Q457.90625 114.671875 458.4375 114.671875ZM465.85938 114.734375Q466.4375 114.734375 466.875 114.390625Q467.3125 114.03125 467.35938 113.5L468.39062 113.5Q468.35938 114.046875 468.0 114.546875Q467.65625 115.03125 467.07812 115.328125Q466.51562 115.625 465.85938 115.625Q464.5625 115.625 463.79688 114.765625Q463.04688 113.890625 463.04688 112.390625L463.04688 112.203125Q463.04688 111.28125 463.375 110.5625Q463.71875 109.84375 464.34375 109.453125Q464.98438 109.046875 465.85938 109.046875Q466.92188 109.046875 467.625 109.6875Q468.34375 110.3125 468.39062 111.34375L467.35938 111.34375Q467.3125 110.71875 466.89062 110.328125Q466.46875 109.9375 465.85938 109.9375Q465.03125 109.9375 464.57812 110.53125Q464.125 111.125 464.125 112.25L464.125 112.453125Q464.125 113.546875 464.57812 114.140625Q465.03125 114.734375 465.85938 114.734375ZM471.09375 112.5625L470.40625 113.265625L470.40625 115.5L469.32812 115.5L469.32812 106.5L470.40625 106.5L470.40625 111.9375L470.98438 111.25L472.96875 109.15625L474.28125 109.15625L471.8125 111.8125L474.57812 115.5L473.29688 115.5L471.09375 112.5625Z" fill-rule="nonzero"/><path stroke="#cccccc" stroke-width="1.0" stroke-linecap="butt" d="M323.0 190.0L421.0 247.0" fill-rule="nonzero"/><path fill="#000000" d="M443.54688 273.5L442.42188 273.5L442.42188 269.5625L438.10938 269.5625L438.10938 273.5L436.98438 273.5L436.98438 264.96875L438.10938 264.96875L438.10938 268.64062L442.42188 268.64062L442.42188 264.96875L443.54688 264.96875L443.54688 273.5ZM447.0 273.5L445.92188 273.5L445.92188 267.15625L447.0 267.15625L447.0 273.5ZM445.82812 265.48438Q445.82812 265.21875 445.98438 265.03125Q446.15625 264.84375 446.46875 264.84375Q446.78125 264.84375 446.9375 265.03125Q447.10938 265.21875 447.10938 265.48438Q447.10938 265.73438 446.9375 265.92188Q446.78125 266.09375 446.46875 266.09375Q446.15625 266.09375 445.98438 265.92188Q445.82812 265.73438 445.82812 265.48438ZM452.51562 271.8125Q452.51562 271.375 452.17188 271.14062Q451.84375 270.89062 451.01562 270.71875Q450.20312 270.54688 449.71875 270.29688Q449.23438 270.04688 449.0 269.71875Q448.78125 269.375 448.78125 268.90625Q448.78125 268.125 449.4375 267.59375Q450.09375 267.04688 451.125 267.04688Q452.20312 267.04688 452.85938 267.60938Q453.53125 268.15625 453.53125 269.01562L452.45312 269.01562Q452.45312 268.57812 452.0625 268.26562Q451.6875 267.9375 451.125 267.9375Q450.53125 267.9375 450.1875 268.20312Q449.85938 268.45312 449.85938 268.85938Q449.85938 269.25 450.17188 269.45312Q450.48438 269.65625 451.29688 269.84375Q452.10938 270.01562 452.60938 270.26562Q453.10938 270.51562 453.34375 270.875Q453.59375 271.23438 453.59375 271.73438Q453.59375 272.59375 452.90625 273.10938Q452.23438 273.625 451.15625 273.625Q450.39062 273.625 449.79688 273.35938Q449.21875 273.07812 448.89062 272.59375Q448.5625 272.10938 448.5625 271.54688L449.64062 271.54688Q449.67188 272.09375 450.07812 272.42188Q450.48438 272.73438 451.15625 272.73438Q451.76562 272.73438 452.14062 272.48438Q452.51562 272.23438 452.51562 271.8125ZM460.17188 270.40625Q460.17188 271.84375 459.51562 272.73438Q458.85938 273.625 457.71875 273.625Q456.5625 273.625 455.90625 272.89062L455.90625 275.9375L454.82812 275.9375L454.82812 267.15625L455.8125 267.15625L455.85938 267.85938Q456.53125 267.04688 457.70312 267.04688Q458.84375 267.04688 459.5 267.90625Q460.17188 268.76562 460.17188 270.29688L460.17188 270.40625ZM459.09375 270.28125Q459.09375 269.20312 458.625 268.59375Q458.17188 267.96875 457.375 267.96875Q456.39062 267.96875 455.90625 268.82812L455.90625 271.85938Q456.39062 272.73438 457.39062 272.73438Q458.17188 272.73438 458.625 272.125Q459.09375 271.5 459.09375 270.28125ZM465.73438 273.5Q465.64062 273.3125 465.57812 272.82812Q464.82812 273.625 463.78125 273.625Q462.84375 273.625 462.23438 273.09375Q461.64062 272.5625 461.64062 271.73438Q461.64062 270.75 462.39062 270.20312Q463.14062 269.65625 464.51562 269.65625L465.5625 269.65625L465.5625 269.15625Q465.5625 268.59375 465.21875 268.26562Q464.89062 267.92188 464.21875 267.92188Q463.64062 267.92188 463.25 268.21875Q462.85938 268.5 462.85938 268.92188L461.76562 268.92188Q461.76562 268.4375 462.09375 268.0Q462.4375 267.5625 463.01562 267.3125Q463.59375 267.04688 464.28125 267.04688Q465.39062 267.04688 466.0 267.59375Q466.625 268.14062 466.65625 269.09375L466.65625 272.01562Q466.65625 272.89062 466.875 273.40625L466.875 273.5L465.73438 273.5ZM463.9375 272.67188Q464.45312 272.67188 464.90625 272.40625Q465.35938 272.14062 465.5625 271.71875L465.5625 270.42188L464.71875 270.42188Q462.71875 270.42188 462.71875 271.59375Q462.71875 272.09375 463.0625 272.39062Q463.40625 272.67188 463.9375 272.67188ZM469.84375 267.15625L469.875 267.95312Q470.60938 267.04688 471.78125 267.04688Q473.79688 267.04688 473.8125 269.3125L473.8125 273.5L472.71875 273.5L472.71875 269.29688Q472.71875 268.625 472.40625 268.29688Q472.10938 267.96875 471.45312 267.96875Q470.92188 267.96875 470.51562 268.25Q470.125 268.53125 469.90625 268.98438L469.90625 273.5L468.82812 273.5L468.82812 267.15625L469.84375 267.15625ZM477.0 273.5L475.92188 273.5L475.92188 267.15625L477.0 267.15625L477.0 273.5ZM475.82812 265.48438Q475.82812 265.21875 475.98438 265.03125Q476.15625 264.84375 476.46875 264.84375Q476.78125 264.84375 476.9375 265.03125Q477.10938 265.21875 477.10938 265.48438Q477.10938 265.73438 476.9375 265.92188Q476.78125 266.09375 476.46875 266.09375Q476.15625 266.09375 475.98438 265.92188Q475.82812 265.73438 475.82812 265.48438ZM481.35938 272.73438Q481.9375 272.73438 482.375 272.39062Q482.8125 272.03125 482.85938 271.5L483.89062 271.5Q483.85938 272.04688 483.5 272.54688Q483.15625 273.03125 482.57812 273.32812Q482.01562 273.625 481.35938 273.625Q480.0625 273.625 479.29688 272.76562Q478.54688 271.89062 478.54688 270.39062L478.54688 270.20312Q478.54688 269.28125 478.875 268.5625Q479.21875 267.84375 479.84375 267.45312Q480.48438 267.04688 481.35938 267.04688Q482.42188 267.04688 483.125 267.6875Q483.84375 268.3125 483.89062 269.34375L482.85938 269.34375Q482.8125 268.71875 482.39062 268.32812Q481.96875 267.9375 481.35938 267.9375Q480.53125 267.9375 480.07812 268.53125Q479.625 269.125 479.625 270.25L479.625 270.45312Q479.625 271.54688 480.07812 272.14062Q480.53125 272.73438 481.35938 272.73438Z" fill-rule="nonzero"/><path stroke="#cccccc" stroke-width="1.0" stroke-linecap="butt" d="M323.0 190.0L323.0 304.0" fill-rule="nonzero"/><path fill="#000000" d="M310.32812 349.8125L310.5 350.9375L310.73438 349.92188L312.42188 343.96875L313.375 343.96875L315.01562 349.92188L315.25 350.95312L315.4375 349.79688L316.76562 343.96875L317.89062 343.96875L315.82812 352.5L314.79688 352.5L313.03125 346.28125L312.90625 345.625L312.76562 346.28125L310.95312 352.5L309.92188 352.5L307.85938 343.96875L308.98438 343.96875L310.32812 349.8125ZM320.40625 346.92188Q321.125 346.04688 322.28125 346.04688Q324.29688 346.04688 324.3125 348.3125L324.3125 352.5L323.21875 352.5L323.21875 348.29688Q323.21875 347.625 322.90625 347.29688Q322.60938 346.96875 321.95312 346.96875Q321.42188 346.96875 321.01562 347.25Q320.625 347.53125 320.40625 347.98438L320.40625 352.5L319.32812 352.5L319.32812 343.5L320.40625 343.5L320.40625 346.92188ZM327.5 352.5L326.42188 352.5L326.42188 346.15625L327.5 346.15625L327.5 352.5ZM326.32812 344.48438Q326.32812 344.21875 326.48438 344.03125Q326.65625 343.84375 326.96875 343.84375Q327.28125 343.84375 327.4375 344.03125Q327.60938 344.21875 327.60938 344.48438Q327.60938 344.73438 327.4375 344.92188Q327.28125 345.09375 326.96875 345.09375Q326.65625 345.09375 326.48438 344.92188Q326.32812 344.73438 326.32812 344.48438ZM330.79688 344.625L330.79688 346.15625L331.96875 346.15625L331.96875 347.0L330.79688 347.0L330.79688 350.92188Q330.79688 351.3125 330.95312 351.5Q331.10938 351.6875 331.48438 351.6875Q331.67188 351.6875 332.0 351.625L332.0 352.5Q331.57812 352.625 331.17188 352.625Q330.45312 352.625 330.07812 352.1875Q329.70312 351.73438 329.70312 350.92188L329.70312 347.0L328.54688 347.0L328.54688 346.15625L329.70312 346.15625L329.70312 344.625L330.79688 344.625ZM335.95312 352.625Q334.65625 352.625 333.84375 351.78125Q333.04688 350.92188 333.04688 349.5L333.04688 349.3125Q333.04688 348.35938 333.40625 347.625Q333.76562 346.875 334.40625 346.46875Q335.0625 346.04688 335.8125 346.04688Q337.04688 346.04688 337.73438 346.85938Q338.42188 347.67188 338.42188 349.1875L338.42188 349.64062L334.125 349.64062Q334.15625 350.57812 334.67188 351.15625Q335.20312 351.73438 336.01562 351.73438Q336.57812 351.73438 336.96875 351.5Q337.375 351.26562 337.6875 350.875L338.34375 351.39062Q337.54688 352.625 335.95312 352.625ZM335.8125 346.9375Q335.15625 346.9375 334.70312 347.42188Q334.26562 347.89062 334.17188 348.75L337.34375 348.75L337.34375 348.67188Q337.29688 347.84375 336.89062 347.39062Q336.5 346.9375 335.8125 346.9375Z" fill-rule="nonzero"/><path stroke="#cccccc" stroke-width="1.0" stroke-linecap="butt" d="M323.0 190.0L225.0 247.0" fill-rule="nonzero"/><path fill="#000000" d="M141.89062 265.89062L139.14062 265.89062L139.14062 273.5L138.03125 273.5L138.03125 265.89062L135.28125 265.89062L135.28125 264.96875L141.89062 264.96875L141.89062 265.89062ZM148.4375 272.0L149.65625 267.15625L150.73438 267.15625L148.89062 273.5L148.01562 273.5L146.46875 268.6875L144.96875 273.5L144.09375 273.5L142.25 267.15625L143.32812 267.15625L144.57812 271.90625L146.0625 267.15625L146.92188 267.15625L148.4375 272.0ZM151.53125 270.26562Q151.53125 269.34375 151.89062 268.59375Q152.26562 267.84375 152.92188 267.45312Q153.57812 267.04688 154.40625 267.04688Q155.70312 267.04688 156.5 267.9375Q157.3125 268.82812 157.3125 270.32812L157.3125 270.40625Q157.3125 271.32812 156.95312 272.0625Q156.59375 272.79688 155.9375 273.21875Q155.28125 273.625 154.42188 273.625Q153.14062 273.625 152.32812 272.73438Q151.53125 271.82812 151.53125 270.34375L151.53125 270.26562ZM152.625 270.40625Q152.625 271.45312 153.10938 272.09375Q153.60938 272.73438 154.42188 272.73438Q155.25 272.73438 155.73438 272.09375Q156.21875 271.4375 156.21875 270.26562Q156.21875 269.23438 155.71875 268.59375Q155.23438 267.9375 154.40625 267.9375Q153.60938 267.9375 153.10938 268.57812Q152.625 269.20312 152.625 270.40625ZM161.53125 270.26562Q161.53125 269.34375 161.89062 268.59375Q162.26562 267.84375 162.92188 267.45312Q163.57812 267.04688 164.40625 267.04688Q165.70312 267.04688 166.5 267.9375Q167.3125 268.82812 167.3125 270.32812L167.3125 270.40625Q167.3125 271.32812 166.95312 272.0625Q166.59375 272.79688 165.9375 273.21875Q165.28125 273.625 164.42188 273.625Q163.14062 273.625 162.32812 272.73438Q161.53125 271.82812 161.53125 270.34375L161.53125 270.26562ZM162.625 270.40625Q162.625 271.45312 163.10938 272.09375Q163.60938 272.73438 164.42188 272.73438Q165.25 272.73438 165.73438 272.09375Q166.21875 271.4375 166.21875 270.26562Q166.21875 269.23438 165.71875 268.59375Q165.23438 267.9375 164.40625 267.9375Q163.60938 267.9375 163.10938 268.57812Q162.625 269.20312 162.625 270.40625ZM171.89062 268.125Q171.64062 268.09375 171.35938 268.09375Q170.28125 268.09375 169.90625 269.0L169.90625 273.5L168.82812 273.5L168.82812 267.15625L169.875 267.15625L169.89062 267.89062Q170.42188 267.04688 171.40625 267.04688Q171.71875 267.04688 171.89062 267.125L171.89062 268.125ZM177.4375 264.96875L180.23438 271.92188L183.01562 264.96875L184.48438 264.96875L184.48438 273.5L183.35938 273.5L183.35938 270.17188L183.46875 266.59375L180.65625 273.5L179.79688 273.5L177.0 266.60938L177.10938 270.17188L177.10938 273.5L175.98438 273.5L175.98438 264.96875L177.4375 264.96875ZM185.53125 270.26562Q185.53125 269.34375 185.89062 268.59375Q186.26562 267.84375 186.92188 267.45312Q187.57812 267.04688 188.40625 267.04688Q189.70312 267.04688 190.5 267.9375Q191.3125 268.82812 191.3125 270.32812L191.3125 270.40625Q191.3125 271.32812 190.95312 272.0625Q190.59375 272.79688 189.9375 273.21875Q189.28125 273.625 188.42188 273.625Q187.14062 273.625 186.32812 272.73438Q185.53125 271.82812 185.53125 270.34375L185.53125 270.26562ZM186.625 270.40625Q186.625 271.45312 187.10938 272.09375Q187.60938 272.73438 188.42188 272.73438Q189.25 272.73438 189.73438 272.09375Q190.21875 271.4375 190.21875 270.26562Q190.21875 269.23438 189.71875 268.59375Q189.23438 267.9375 188.40625 267.9375Q187.60938 267.9375 187.10938 268.57812Q186.625 269.20312 186.625 270.40625ZM195.89062 268.125Q195.64062 268.09375 195.35938 268.09375Q194.28125 268.09375 193.90625 269.0L193.90625 273.5L192.82812 273.5L192.82812 267.15625L193.875 267.15625L193.89062 267.89062Q194.42188 267.04688 195.40625 267.04688Q195.71875 267.04688 195.89062 267.125L195.89062 268.125ZM199.45312 273.625Q198.15625 273.625 197.34375 272.78125Q196.54688 271.92188 196.54688 270.5L196.54688 270.3125Q196.54688 269.35938 196.90625 268.625Q197.26562 267.875 197.90625 267.46875Q198.5625 267.04688 199.3125 267.04688Q200.54688 267.04688 201.23438 267.85938Q201.92188 268.67188 201.92188 270.1875L201.92188 270.64062L197.625 270.64062Q197.65625 271.57812 198.17188 272.15625Q198.70312 272.73438 199.51562 272.73438Q200.07812 272.73438 200.46875 272.5Q200.875 272.26562 201.1875 271.875L201.84375 272.39062Q201.04688 273.625 199.45312 273.625ZM199.3125 267.9375Q198.65625 267.9375 198.20312 268.42188Q197.76562 268.89062 197.67188 269.75L200.84375 269.75L200.84375 269.67188Q200.79688 268.84375 200.39062 268.39062Q200.0 267.9375 199.3125 267.9375ZM209.125 270.04688L207.10938 270.04688L207.10938 273.5L205.98438 273.5L205.98438 264.96875L208.8125 264.96875Q210.25 264.96875 211.01562 265.625Q211.79688 266.28125 211.79688 267.53125Q211.79688 268.32812 211.35938 268.92188Q210.9375 269.51562 210.17188 269.8125L212.17188 273.42188L212.17188 273.5L210.96875 273.5L209.125 270.04688ZM207.10938 269.125L208.84375 269.125Q209.6875 269.125 210.17188 268.70312Q210.67188 268.26562 210.67188 267.53125Q210.67188 266.75 210.20312 266.32812Q209.73438 265.90625 208.84375 265.89062L207.10938 265.89062L207.10938 269.125ZM216.73438 273.5Q216.64062 273.3125 216.57812 272.82812Q215.82812 273.625 214.78125 273.625Q213.84375 273.625 213.23438 273.09375Q212.64062 272.5625 212.64062 271.73438Q212.64062 270.75 213.39062 270.20312Q214.14062 269.65625 215.51562 269.65625L216.5625 269.65625L216.5625 269.15625Q216.5625 268.59375 216.21875 268.26562Q215.89062 267.92188 215.21875 267.92188Q214.64062 267.92188 214.25 268.21875Q213.85938 268.5 213.85938 268.92188L212.76562 268.92188Q212.76562 268.4375 213.09375 268.0Q213.4375 267.5625 214.01562 267.3125Q214.59375 267.04688 215.28125 267.04688Q216.39062 267.04688 217.0 267.59375Q217.625 268.14062 217.65625 269.09375L217.65625 272.01562Q217.65625 272.89062 217.875 273.40625L217.875 273.5L216.73438 273.5ZM214.9375 272.67188Q215.45312 272.67188 215.90625 272.40625Q216.35938 272.14062 216.5625 271.71875L216.5625 270.42188L215.71875 270.42188Q213.71875 270.42188 213.71875 271.59375Q213.71875 272.09375 214.0625 272.39062Q214.40625 272.67188 214.9375 272.67188ZM222.35938 272.73438Q222.9375 272.73438 223.375 272.39062Q223.8125 272.03125 223.85938 271.5L224.89062 271.5Q224.85938 272.04688 224.5 272.54688Q224.15625 273.03125 223.57812 273.32812Q223.01562 273.625 222.35938 273.625Q221.0625 273.625 220.29688 272.76562Q219.54688 271.89062 219.54688 270.39062L219.54688 270.20312Q219.54688 269.28125 219.875 268.5625Q220.21875 267.84375 220.84375 267.45312Q221.48438 267.04688 222.35938 267.04688Q223.42188 267.04688 224.125 267.6875Q224.84375 268.3125 224.89062 269.34375L223.85938 269.34375Q223.8125 268.71875 223.39062 268.32812Q222.96875 267.9375 222.35938 267.9375Q221.53125 267.9375 221.07812 268.53125Q220.625 269.125 220.625 270.25L220.625 270.45312Q220.625 271.54688 221.07812 272.14062Q221.53125 272.73438 222.35938 272.73438ZM228.45312 273.625Q227.15625 273.625 226.34375 272.78125Q225.54688 271.92188 225.54688 270.5L225.54688 270.3125Q225.54688 269.35938 225.90625 268.625Q226.26562 267.875 226.90625 267.46875Q227.5625 267.04688 228.3125 267.04688Q229.54688 267.04688 230.23438 267.85938Q230.92188 268.67188 230.92188 270.1875L230.92188 270.64062L226.625 270.64062Q226.65625 271.57812 227.17188 272.15625Q227.70312 272.73438 228.51562 272.73438Q229.07812 272.73438 229.46875 272.5Q229.875 272.26562 230.1875 271.875L230.84375 272.39062Q230.04688 273.625 228.45312 273.625ZM228.3125 267.9375Q227.65625 267.9375 227.20312 268.42188Q226.76562 268.89062 226.67188 269.75L229.84375 269.75L229.84375 269.67188Q229.79688 268.84375 229.39062 268.39062Q229.0 267.9375 228.3125 267.9375ZM235.51562 271.8125Q235.51562 271.375 235.17188 271.14062Q234.84375 270.89062 234.01562 270.71875Q233.20312 270.54688 232.71875 270.29688Q232.23438 270.04688 232.0 269.71875Q231.78125 269.375 231.78125 268.90625Q231.78125 268.125 232.4375 267.59375Q233.09375 267.04688 234.125 267.04688Q235.20312 267.04688 235.85938 267.60938Q236.53125 268.15625 236.53125 269.01562L235.45312 269.01562Q235.45312 268.57812 235.0625 268.26562Q234.6875 267.9375 234.125 267.9375Q233.53125 267.9375 233.1875 268.20312Q232.85938 268.45312 232.85938 268.85938Q232.85938 269.25 233.17188 269.45312Q233.48438 269.65625 234.29688 269.84375Q235.10938 270.01562 235.60938 270.26562Q236.10938 270.51562 236.34375 270.875Q236.59375 271.23438 236.59375 271.73438Q236.59375 272.59375 235.90625 273.10938Q235.23438 273.625 234.15625 273.625Q233.39062 273.625 232.79688 273.35938Q232.21875 273.07812 231.89062 272.59375Q231.5625 272.10938 231.5625 271.54688L232.64062 271.54688Q232.67188 272.09375 233.07812 272.42188Q233.48438 272.73438 234.15625 272.73438Q234.76562 272.73438 235.14062 272.48438Q235.51562 272.23438 235.51562 271.8125Z" fill-rule="nonzero"/><path stroke="#cccccc" stroke-width="1.0" stroke-linecap="butt" d="M323.0 190.0L225.0 133.0" fill-rule="nonzero"/><path fill="#000000" d="M176.20312 113.265625L172.625 113.265625L171.82812 115.5L170.67188 115.5L173.92188 106.96875L174.90625 106.96875L178.17188 115.5L177.01562 115.5L176.20312 113.265625ZM172.96875 112.34375L175.875 112.34375L174.42188 108.359375L172.96875 112.34375ZM183.01562 113.8125Q183.01562 113.375 182.67188 113.140625Q182.34375 112.890625 181.51562 112.71875Q180.70312 112.546875 180.21875 112.296875Q179.73438 112.046875 179.5 111.71875Q179.28125 111.375 179.28125 110.90625Q179.28125 110.125 179.9375 109.59375Q180.59375 109.046875 181.625 109.046875Q182.70312 109.046875 183.35938 109.609375Q184.03125 110.15625 184.03125 111.015625L182.95312 111.015625Q182.95312 110.578125 182.5625 110.265625Q182.1875 109.9375 181.625 109.9375Q181.03125 109.9375 180.6875 110.203125Q180.35938 110.453125 180.35938 110.859375Q180.35938 111.25 180.67188 111.453125Q180.98438 111.65625 181.79688 111.84375Q182.60938 112.015625 183.10938 112.265625Q183.60938 112.515625 183.84375 112.875Q184.09375 113.234375 184.09375 113.734375Q184.09375 114.59375 183.40625 115.109375Q182.73438 115.625 181.65625 115.625Q180.89062 115.625 180.29688 115.359375Q179.71875 115.078125 179.39062 114.59375Q179.0625 114.109375 179.0625 113.546875L180.14062 113.546875Q180.17188 114.09375 180.57812 114.421875Q180.98438 114.734375 181.65625 114.734375Q182.26562 114.734375 182.64062 114.484375Q183.01562 114.234375 183.01562 113.8125ZM186.5 115.5L185.42188 115.5L185.42188 109.15625L186.5 109.15625L186.5 115.5ZM185.32812 107.484375Q185.32812 107.21875 185.48438 107.03125Q185.65625 106.84375 185.96875 106.84375Q186.28125 106.84375 186.4375 107.03125Q186.60938 107.21875 186.60938 107.484375Q186.60938 107.734375 186.4375 107.921875Q186.28125 108.09375 185.96875 108.09375Q185.65625 108.09375 185.48438 107.921875Q185.32812 107.734375 185.32812 107.484375ZM192.23438 115.5Q192.14062 115.3125 192.07812 114.828125Q191.32812 115.625 190.28125 115.625Q189.34375 115.625 188.73438 115.09375Q188.14062 114.5625 188.14062 113.734375Q188.14062 112.75 188.89062 112.203125Q189.64062 111.65625 191.01562 111.65625L192.0625 111.65625L192.0625 111.15625Q192.0625 110.59375 191.71875 110.265625Q191.39062 109.921875 190.71875 109.921875Q190.14062 109.921875 189.75 110.21875Q189.35938 110.5 189.35938 110.921875L188.26562 110.921875Q188.26562 110.4375 188.59375 110.0Q188.9375 109.5625 189.51562 109.3125Q190.09375 109.046875 190.78125 109.046875Q191.89062 109.046875 192.5 109.59375Q193.125 110.140625 193.15625 111.09375L193.15625 114.015625Q193.15625 114.890625 193.375 115.40625L193.375 115.5L192.23438 115.5ZM190.4375 114.671875Q190.95312 114.671875 191.40625 114.40625Q191.85938 114.140625 192.0625 113.71875L192.0625 112.421875L191.21875 112.421875Q189.21875 112.421875 189.21875 113.59375Q189.21875 114.09375 189.5625 114.390625Q189.90625 114.671875 190.4375 114.671875ZM196.34375 109.15625L196.375 109.953125Q197.10938 109.046875 198.28125 109.046875Q200.29688 109.046875 200.3125 111.3125L200.3125 115.5L199.21875 115.5L199.21875 111.296875Q199.21875 110.625 198.90625 110.296875Q198.60938 109.96875 197.95312 109.96875Q197.42188 109.96875 197.01562 110.25Q196.625 110.53125 196.40625 110.984375L196.40625 115.5L195.32812 115.5L195.32812 109.15625L196.34375 109.15625Z" fill-rule="nonzero"/><path stroke="#cccccc" stroke-width="1.0" stroke-linecap="butt" d="M323.0 190.0L323.0 77.0" fill-rule="nonzero"/><path stroke="#4285f4" stroke-width="2.0" stroke-linecap="butt" d="M323.0 90.0C357.0 96.0 387.0 113.0 410.0 140.0C422.0 173.0 422.0 207.0 410.0 240.0C387.0 267.0 357.0 284.0 323.0 290.0C289.0 284.0 259.0 267.0 236.0 240.0C224.0 207.0 224.0 173.0 236.0 140.0C259.0 113.0 289.0 96.0 323.0 90.0Z" fill-rule="nonzero"/><path fill="#4285f4" d="M325.0 90.0C325.0 91.10457 324.10458 92.0 323.0 92.0C321.89542 92.0 321.0 91.10457 321.0 90.0C321.0 88.89543 321.89542 88.0 323.0 88.0C324.10458 88.0 325.0 88.89543 325.0 90.0Z" fill-rule="nonzero"/><path fill="#4285f4" d="M412.0 140.0C412.0 141.10457 411.10458 142.0 410.0 142.0C408.89542 142.0 408.0 141.10457 408.0 140.0C408.0 138.89543 408.89542 138.0 410.0 138.0C411.10458 138.0 412.0 138.89543 412.0 140.0Z" fill-rule="nonzero"/><path fill="#4285f4" d="M412.0 240.0C412.0 241.10457 411.10458 242.0 410.0 242.0C408.89542 242.0 408.0 241.10457 408.0 240.0C408.0 238.89543 408.89542 238.0 410.0 238.0C411.10458 238.0 412.0 238.89543 412.0 240.0Z" fill-rule="nonzero"/><path fill="#4285f4" d="M325.0 290.0C325.0 291.10458 324.10458 292.0 323.0 292.0C321.89542 292.0 321.0 291.10458 321.0 290.0C321.0 288.89542 321.89542 288.0 323.0 288.0C324.10458 288.0 325.0 288.89542 325.0 290.0Z" fill-rule="nonzero"/><path fill="#4285f4" d="M238.0 240.0C238.0 241.10457 237.10457 242.0 236.0 242.0C234.89543 242.0 234.0 241.10457 234.0 240.0C234.0 238.89543 234.89543 238.0 236.0 238.0C237.10457 238.0 238.0 238.89543 238.0 240.0Z" fill-rule="nonzero"/><path fill="#4285f4" d="M238.0 140.0C238.0 141.10457 237.10457 142.0 236.0 142.0C234.89543 142.0 234.0 141.10457 234.0 140.0C234.0 138.89543 234.89543 138.0 236.0 138.0C237.10457 138.0 238.0 138.89543 238.0 140.0Z" fill-rule="nonzero"/></svg>