<svg version="1.1" viewBox="0.0 0.0 600.0 371.0" fill="none" stroke="none" stroke-linecap="square" stroke-miterlimit="10" width="600" height="371" xmlns:xlink="http://www.w3.org/1999/xlink" xmlns="http://www.w3.org/2000/svg"><path fill="#ffffff" d="M0 0L600.0 0L600.0 371.0L0 371.0L0 0Z" fill-rule="nonzero"/><path fill="#ffffff" d="M20.05 51.34788L599.5 51.34788L599.5 338.15585L20.05 338.15585L20.05 51.34788Z" fill-rule="nonzero"/><path stroke="#b7b7b7" stroke-width="1.0" stroke-linecap="butt" d="M310.0 195.0C310.0 195.0 310.0 195.0 310.0 195.0C310.0 195.0 310.0 195.0 310.0 195.0C310.0 195.0 310.0 195.0 310.0 195.0C310.0 195.0 310.0 195.0 310.0 195.0" fill-rule="nonzero"/><path fill="#000000" d="M307.0625 188.35938Q307.0625 190.26562 306.40625 191.20312Q305.76562 192.125 304.375 192.125Q303.01562 192.125 302.35938 191.21875Q301.70312 190.3125 301.67188 188.5L301.67188 187.0625Q301.67188 185.17188 302.3125 184.26562Q302.96875 183.34375 304.35938 183.34375Q305.73438 183.34375 306.39062 184.23438Q307.04688 185.10938 307.0625 186.95312L307.0625 188.35938ZM305.96875 186.875Q305.96875 185.5 305.57812 184.875Q305.20312 184.23438 304.35938 184.23438Q303.53125 184.23438 303.14062 184.875Q302.76562 185.5 302.76562 186.79688L302.76562 188.53125Q302.76562 189.90625 303.15625 190.57812Q303.5625 191.23438 304.375 191.23438Q305.17188 191.23438 305.5625 190.60938Q305.95312 189.98438 305.96875 188.65625L305.96875 186.875Z" fill-rule="nonzero"/><path stroke="#b7b7b7" stroke-width="1.0" stroke-linecap="butt" d="M332.2808 195.0C332.2808 182.69466 322.30536 172.71921 310.0 172.71921C297.69464 172.71921 287.7192 182.69466 287.7192 195.0C287.7192 207.30534 297.69464 217.28079 310.0 217.28079C322.30536 217.28079 332.2808 207.30534 332.2808 195.0" fill-rule="nonzero"/><path fill="#000000" d="M293.29688 169.71921L287.70312 169.71921L287.70312 168.93796L290.65625 165.65671Q291.3125 164.90671 291.5625 164.45358Q291.8125 163.98483 291.8125 163.48483Q291.8125 162.81296 291.40625 162.39108Q291.01562 161.95358 290.32812 161.95358Q289.53125 161.95358 289.07812 162.42233Q288.625 162.87546 288.625 163.70358L287.54688 163.70358Q287.54688 162.51608 288.29688 161.79733Q289.0625 161.06296 290.32812 161.06296Q291.53125 161.06296 292.21875 161.68796Q292.90625 162.31296 292.90625 163.35983Q292.90625 164.60983 291.29688 166.35983L289.01562 168.82858L293.29688 168.82858L293.29688 169.71921ZM295.20312 165.43796L295.64062 161.18796L300.01562 161.18796L300.01562 162.18796L296.5625 162.18796L296.29688 164.51608Q296.9375 164.14108 297.73438 164.14108Q298.89062 164.14108 299.57812 164.92233Q300.26562 165.68796 300.26562 167.00046Q300.26562 168.31296 299.54688 169.07858Q298.84375 169.84421 297.5625 169.84421Q296.4375 169.84421 295.71875 169.21921Q295.0 168.57858 294.90625 167.46921L295.92188 167.46921Q296.03125 168.20358 296.45312 168.57858Q296.875 168.95358 297.5625 168.95358Q298.3125 168.95358 298.75 168.43796Q299.1875 167.92233 299.1875 167.01608Q299.1875 166.15671 298.71875 165.64108Q298.25 165.12546 297.46875 165.12546Q296.76562 165.12546 296.35938 165.42233L296.07812 165.65671L295.20312 165.43796ZM307.0625 166.07858Q307.0625 167.98483 306.40625 168.92233Q305.76562 169.84421 304.375 169.84421Q303.01562 169.84421 302.35938 168.93796Q301.70312 168.03171 301.67188 166.21921L301.67188 164.78171Q301.67188 162.89108 302.3125 161.98483Q302.96875 161.06296 304.35938 161.06296Q305.73438 161.06296 306.39062 161.95358Q307.04688 162.82858 307.0625 164.67233L307.0625 166.07858ZM305.96875 164.59421Q305.96875 163.21921 305.57812 162.59421Q305.20312 161.95358 304.35938 161.95358Q303.53125 161.95358 303.14062 162.59421Q302.76562 163.21921 302.76562 164.51608L302.76562 166.25046Q302.76562 167.62546 303.15625 168.29733Q303.5625 168.95358 304.375 168.95358Q305.17188 168.95358 305.5625 168.32858Q305.95312 167.70358 305.96875 166.37546L305.96875 164.59421Z" fill-rule="nonzero"/><path stroke="#b7b7b7" stroke-width="1.0" stroke-linecap="butt" d="M354.56158 195.0C354.56158 170.38931 334.6107 150.4384 310.0 150.4384C285.3893 150.4384 265.43842 170.38931 265.43842 195.0C265.43842 219.61069 285.3893 239.5616 310.0 239.5616C334.6107 239.5616 354.56158 219.61069 354.56158 195.0" fill-rule="nonzero"/><path fill="#000000" d="M288.20312 143.15715L288.64062 138.90715L293.01562 138.90715L293.01562 139.90715L289.5625 139.90715L289.29688 142.23528Q289.9375 141.86028 290.73438 141.86028Q291.89062 141.86028 292.57812 142.64153Q293.26562 143.40715 293.26562 144.71965Q293.26562 146.03215 292.54688 146.79778Q291.84375 147.5634 290.5625 147.5634Q289.4375 147.5634 288.71875 146.9384Q288.0 146.29778 287.90625 145.1884L288.92188 145.1884Q289.03125 145.92278 289.45312 146.29778Q289.875 146.67278 290.5625 146.67278Q291.3125 146.67278 291.75 146.15715Q292.1875 145.64153 292.1875 144.73528Q292.1875 143.8759 291.71875 143.36028Q291.25 142.84465 290.46875 142.84465Q289.76562 142.84465 289.35938 143.14153L289.07812 143.3759L288.20312 143.15715ZM300.0625 143.79778Q300.0625 145.70403 299.40625 146.64153Q298.76562 147.5634 297.375 147.5634Q296.01562 147.5634 295.35938 146.65715Q294.70312 145.7509 294.67188 143.9384L294.67188 142.5009Q294.67188 140.61028 295.3125 139.70403Q295.96875 138.78215 297.35938 138.78215Q298.73438 138.78215 299.39062 139.67278Q300.04688 140.54778 300.0625 142.39153L300.0625 143.79778ZM298.96875 142.3134Q298.96875 140.9384 298.57812 140.3134Q298.20312 139.67278 297.35938 139.67278Q296.53125 139.67278 296.14062 140.3134Q295.76562 140.9384 295.76562 142.23528L295.76562 143.96965Q295.76562 145.34465 296.15625 146.01653Q296.5625 146.67278 297.375 146.67278Q298.17188 146.67278 298.5625 146.04778Q298.95312 145.42278 298.96875 144.09465L298.96875 142.3134ZM307.0625 143.79778Q307.0625 145.70403 306.40625 146.64153Q305.76562 147.5634 304.375 147.5634Q303.01562 147.5634 302.35938 146.65715Q301.70312 145.7509 301.67188 143.9384L301.67188 142.5009Q301.67188 140.61028 302.3125 139.70403Q302.96875 138.78215 304.35938 138.78215Q305.73438 138.78215 306.39062 139.67278Q307.04688 140.54778 307.0625 142.39153L307.0625 143.79778ZM305.96875 142.3134Q305.96875 140.9384 305.57812 140.3134Q305.20312 139.67278 304.35938 139.67278Q303.53125 139.67278 303.14062 140.3134Q302.76562 140.9384 302.76562 142.23528L302.76562 143.96965Q302.76562 145.34465 303.15625 146.01653Q303.5625 146.67278 304.375 146.67278Q305.17188 146.67278 305.5625 146.04778Q305.95312 145.42278 305.96875 144.09465L305.96875 142.3134Z" fill-rule="nonzero"/><path stroke="#b7b7b7" stroke-width="1.0" stroke-linecap="butt" d="M376.8424 195.0C376.8424 158.08397 346.91605 128.15761 310.0 128.15761C273.08395 128.15761 243.15761 158.08397 243.15761 195.0C243.15761 231.91603 273.08395 261.8424 310.0 261.8424C346.91605 261.8424 376.8424 231.91603 376.8424 195.0" fill-rule="nonzero"/><path fill="#000000" d="M293.21875 117.23573L289.6875 125.15761L288.54688 125.15761L292.0625 117.51698L287.45312 117.51698L287.45312 116.62636L293.21875 116.62636L293.21875 117.23573ZM295.20312 120.87636L295.64062 116.62636L300.01562 116.62636L300.01562 117.62636L296.5625 117.62636L296.29688 119.95448Q296.9375 119.57948 297.73438 119.57948Q298.89062 119.57948 299.57812 120.36073Q300.26562 121.12636 300.26562 122.43886Q300.26562 123.75136 299.54688 124.51698Q298.84375 125.28261 297.5625 125.28261Q296.4375 125.28261 295.71875 124.65761Q295.0 124.01698 294.90625 122.90761L295.92188 122.90761Q296.03125 123.64198 296.45312 124.01698Q296.875 124.39198 297.5625 124.39198Q298.3125 124.39198 298.75 123.87636Q299.1875 123.36073 299.1875 122.45448Q299.1875 121.59511 298.71875 121.07948Q298.25 120.56386 297.46875 120.56386Q296.76562 120.56386 296.35938 120.86073L296.07812 121.09511L295.20312 120.87636ZM307.0625 121.51698Q307.0625 123.42323 306.40625 124.36073Q305.76562 125.28261 304.375 125.28261Q303.01562 125.28261 302.35938 124.37636Q301.70312 123.47011 301.67188 121.65761L301.67188 120.22011Q301.67188 118.32948 302.3125 117.42323Q302.96875 116.50136 304.35938 116.50136Q305.73438 116.50136 306.39062 117.39198Q307.04688 118.26698 307.0625 120.11073L307.0625 121.51698ZM305.96875 120.03261Q305.96875 118.65761 305.57812 118.03261Q305.20312 117.39198 304.35938 117.39198Q303.53125 117.39198 303.14062 118.03261Q302.76562 118.65761 302.76562 119.95448L302.76562 121.68886Q302.76562 123.06386 303.15625 123.73573Q303.5625 124.39198 304.375 124.39198Q305.17188 124.39198 305.5625 123.76698Q305.95312 123.14198 305.96875 121.81386L305.96875 120.03261Z" fill-rule="nonzero"/><path stroke="#b7b7b7" stroke-width="1.0" stroke-linecap="butt" d="M399.1232 195.0C399.1232 145.77863 359.22137 105.87681 310.0 105.87681C260.77863 105.87681 220.8768 145.77863 220.8768 195.0C220.8768 244.22137 260.77863 284.1232 310.0 284.1232C359.22137 284.1232 399.1232 244.22137 399.1232 195.0" fill-rule="nonzero"/><path fill="#000000" d="M284.26562 102.87681L283.1875 102.87681L283.1875 95.65806L281.0 96.45493L281.0 95.47056L284.10938 94.29868L284.26562 94.29868L284.26562 102.87681ZM293.0625 99.23618Q293.0625 101.14243 292.40625 102.07993Q291.76562 103.00181 290.375 103.00181Q289.01562 103.00181 288.35938 102.09556Q287.70312 101.18931 287.67188 99.37681L287.67188 97.93931Q287.67188 96.04868 288.3125 95.14243Q288.96875 94.22056 290.35938 94.22056Q291.73438 94.22056 292.39062 95.11118Q293.04688 95.98618 293.0625 97.82993L293.0625 99.23618ZM291.96875 97.75181Q291.96875 96.37681 291.57812 95.75181Q291.20312 95.11118 290.35938 95.11118Q289.53125 95.11118 289.14062 95.75181Q288.76562 96.37681 288.76562 97.67368L288.76562 99.40806Q288.76562 100.78306 289.15625 101.45493Q289.5625 102.11118 290.375 102.11118Q291.17188 102.11118 291.5625 101.48618Q291.95312 100.86118 291.96875 99.53306L291.96875 97.75181ZM300.0625 99.23618Q300.0625 101.14243 299.40625 102.07993Q298.76562 103.00181 297.375 103.00181Q296.01562 103.00181 295.35938 102.09556Q294.70312 101.18931 294.67188 99.37681L294.67188 97.93931Q294.67188 96.04868 295.3125 95.14243Q295.96875 94.22056 297.35938 94.22056Q298.73438 94.22056 299.39062 95.11118Q300.04688 95.98618 300.0625 97.82993L300.0625 99.23618ZM298.96875 97.75181Q298.96875 96.37681 298.57812 95.75181Q298.20312 95.11118 297.35938 95.11118Q296.53125 95.11118 296.14062 95.75181Q295.76562 96.37681 295.76562 97.67368L295.76562 99.40806Q295.76562 100.78306 296.15625 101.45493Q296.5625 102.11118 297.375 102.11118Q298.17188 102.11118 298.5625 101.48618Q298.95312 100.86118 298.96875 99.53306L298.96875 97.75181ZM307.0625 99.23618Q307.0625 101.14243 306.40625 102.07993Q305.76562 103.00181 304.375 103.00181Q303.01562 103.00181 302.35938 102.09556Q301.70312 101.18931 301.67188 99.37681L301.67188 97.93931Q301.67188 96.04868 302.3125 95.14243Q302.96875 94.22056 304.35938 94.22056Q305.73438 94.22056 306.39062 95.11118Q307.04688 95.98618 307.0625 97.82993L307.0625 99.23618ZM305.96875 97.75181Q305.96875 96.37681 305.57812 95.75181Q305.20312 95.11118 304.35938 95.11118Q303.53125 95.11118 303.14062 95.75181Q302.76562 96.37681 302.76562 97.67368L302.76562 99.40806Q302.76562 100.78306 303.15625 101.45493Q303.5625 102.11118 304.375 102.11118Q305.17188 102.11118 305.5625 101.48618Q305.95312 100.86118 305.96875 99.53306L305.96875 97.75181Z" fill-rule="nonzero"/><path stroke="#b7b7b7" stroke-width="1.0" stroke-linecap="butt" d="M421.404 195.0C421.404 133.47328 371.52673 83.59601 310.0 83.59601C248.47328 83.59601 198.59601 133.47328 198.59601 195.0C198.59601 256.52673 248.47328 306.404 310.0 306.404C371.52673 306.404 421.404 256.52673 421.404 195.0" fill-rule="nonzero"/><path fill="#000000" d="M284.26562 80.59601L283.1875 80.59601L283.1875 73.37726L281.0 74.17413L281.0 73.18976L284.10938 72.01788L284.26562 72.01788L284.26562 80.59601ZM293.29688 80.59601L287.70312 80.59601L287.70312 79.81476L290.65625 76.53351Q291.3125 75.78351 291.5625 75.33038Q291.8125 74.86163 291.8125 74.36163Q291.8125 73.68976 291.40625 73.26788Q291.01562 72.83038 290.32812 72.83038Q289.53125 72.83038 289.07812 73.29913Q288.625 73.75226 288.625 74.58038L287.54688 74.58038Q287.54688 73.39288 288.29688 72.67413Q289.0625 71.93976 290.32812 71.93976Q291.53125 71.93976 292.21875 72.56476Q292.90625 73.18976 292.90625 74.23663Q292.90625 75.48663 291.29688 77.23663L289.01562 79.70538L293.29688 79.70538L293.29688 80.59601ZM295.20312 76.31476L295.64062 72.06476L300.01562 72.06476L300.01562 73.06476L296.5625 73.06476L296.29688 75.39288Q296.9375 75.01788 297.73438 75.01788Q298.89062 75.01788 299.57812 75.79913Q300.26562 76.56476 300.26562 77.87726Q300.26562 79.18976 299.54688 79.95538Q298.84375 80.72101 297.5625 80.72101Q296.4375 80.72101 295.71875 80.09601Q295.0 79.45538 294.90625 78.34601L295.92188 78.34601Q296.03125 79.08038 296.45312 79.45538Q296.875 79.83038 297.5625 79.83038Q298.3125 79.83038 298.75 79.31476Q299.1875 78.79913 299.1875 77.89288Q299.1875 77.03351 298.71875 76.51788Q298.25 76.00226 297.46875 76.00226Q296.76562 76.00226 296.35938 76.29913L296.07812 76.53351L295.20312 76.31476ZM307.0625 76.95538Q307.0625 78.86163 306.40625 79.79913Q305.76562 80.72101 304.375 80.72101Q303.01562 80.72101 302.35938 79.81476Q301.70312 78.90851 301.67188 77.09601L301.67188 75.65851Q301.67188 73.76788 302.3125 72.86163Q302.96875 71.93976 304.35938 71.93976Q305.73438 71.93976 306.39062 72.83038Q307.04688 73.70538 307.0625 75.54913L307.0625 76.95538ZM305.96875 75.47101Q305.96875 74.09601 305.57812 73.47101Q305.20312 72.83038 304.35938 72.83038Q303.53125 72.83038 303.14062 73.47101Q302.76562 74.09601 302.76562 75.39288L302.76562 77.12726Q302.76562 78.50226 303.15625 79.17413Q303.5625 79.83038 304.375 79.83038Q305.17188 79.83038 305.5625 79.20538Q305.95312 78.58038 305.96875 77.25226L305.96875 75.47101Z" fill-rule="nonzero"/><path stroke="#b7b7b7" stroke-width="1.0" stroke-linecap="butt" d="M310.0 195.0L310.0 84.0" fill-rule="nonzero"/><path fill="#000000" d="M272.54688 43.5L271.42188 43.5L267.125 36.921875L267.125 43.5L265.98438 43.5L265.98438 34.96875L267.125 34.96875L271.42188 41.578125L271.42188 34.96875L272.54688 34.96875L272.54688 43.5ZM278.73438 43.5Q278.64062 43.3125 278.57812 42.828125Q277.82812 43.625 276.78125 43.625Q275.84375 43.625 275.23438 43.09375Q274.64062 42.5625 274.64062 41.734375Q274.64062 40.75 275.39062 40.203125Q276.14062 39.65625 277.51562 39.65625L278.5625 39.65625L278.5625 39.15625Q278.5625 38.59375 278.21875 38.265625Q277.89062 37.921875 277.21875 37.921875Q276.64062 37.921875 276.25 38.21875Q275.85938 38.5 275.85938 38.921875L274.76562 38.921875Q274.76562 38.4375 275.09375 38.0Q275.4375 37.5625 276.01562 37.3125Q276.59375 37.046875 277.28125 37.046875Q278.39062 37.046875 279.0 37.59375Q279.625 38.140625 279.65625 39.09375L279.65625 42.015625Q279.65625 42.890625 279.875 43.40625L279.875 43.5L278.73438 43.5ZM276.9375 42.671875Q277.45312 42.671875 277.90625 42.40625Q278.35938 42.140625 278.5625 41.71875L278.5625 40.421875L277.71875 40.421875Q275.71875 40.421875 275.71875 41.59375Q275.71875 42.09375 276.0625 42.390625Q276.40625 42.671875 276.9375 42.671875ZM283.29688 35.625L283.29688 37.15625L284.46875 37.15625L284.46875 38.0L283.29688 38.0L283.29688 41.921875Q283.29688 42.3125 283.45312 42.5Q283.60938 42.6875 283.98438 42.6875Q284.17188 42.6875 284.5 42.625L284.5 43.5Q284.07812 43.625 283.67188 43.625Q282.95312 43.625 282.57812 43.1875Q282.20312 42.734375 282.20312 41.921875L282.20312 38.0L281.04688 38.0L281.04688 37.15625L282.20312 37.15625L282.20312 35.625L283.29688 35.625ZM287.0 43.5L285.92188 43.5L285.92188 37.15625L287.0 37.15625L287.0 43.5ZM285.82812 35.484375Q285.82812 35.21875 285.98438 35.03125Q286.15625 34.84375 286.46875 34.84375Q286.78125 34.84375 286.9375 35.03125Q287.10938 35.21875 287.10938 35.484375Q287.10938 35.734375 286.9375 35.921875Q286.78125 36.09375 286.46875 36.09375Q286.15625 36.09375 285.98438 35.921875Q285.82812 35.734375 285.82812 35.484375ZM290.90625 42.03125L292.48438 37.15625L293.59375 37.15625L291.3125 43.5L290.48438 43.5L288.1875 37.15625L289.29688 37.15625L290.90625 42.03125ZM297.45312 43.625Q296.15625 43.625 295.34375 42.78125Q294.54688 41.921875 294.54688 40.5L294.54688 40.3125Q294.54688 39.359375 294.90625 38.625Q295.26562 37.875 295.90625 37.46875Q296.5625 37.046875 297.3125 37.046875Q298.54688 37.046875 299.23438 37.859375Q299.92188 38.671875 299.92188 40.1875L299.92188 40.640625L295.625 40.640625Q295.65625 41.578125 296.17188 42.15625Q296.70312 42.734375 297.51562 42.734375Q298.07812 42.734375 298.46875 42.5Q298.875 42.265625 299.1875 41.875L299.84375 42.390625Q299.04688 43.625 297.45312 43.625ZM297.3125 37.9375Q296.65625 37.9375 296.20312 38.421875Q295.76562 38.890625 295.67188 39.75L298.84375 39.75L298.84375 39.671875Q298.79688 38.84375 298.39062 38.390625Q298.0 37.9375 297.3125 37.9375ZM308.70312 41.265625L305.125 41.265625L304.32812 43.5L303.17188 43.5L306.42188 34.96875L307.40625 34.96875L310.67188 43.5L309.51562 43.5L308.70312 41.265625ZM305.46875 40.34375L308.375 40.34375L306.92188 36.359375L305.46875 40.34375ZM312.84375 37.15625L312.875 37.859375Q313.5625 37.046875 314.75 37.046875Q316.07812 37.046875 316.5625 38.0625Q316.875 37.609375 317.375 37.328125Q317.89062 37.046875 318.57812 37.046875Q320.67188 37.046875 320.70312 39.25L320.70312 43.5L319.625 43.5L319.625 39.3125Q319.625 38.640625 319.3125 38.3125Q319.0 37.96875 318.26562 37.96875Q317.65625 37.96875 317.25 38.328125Q316.85938 38.6875 316.79688 39.296875L316.79688 43.5L315.71875 43.5L315.71875 39.34375Q315.71875 37.96875 314.35938 37.96875Q313.29688 37.96875 312.90625 38.875L312.90625 43.5L311.8125 43.5L311.8125 37.15625L312.84375 37.15625ZM325.45312 43.625Q324.15625 43.625 323.34375 42.78125Q322.54688 41.921875 322.54688 40.5L322.54688 40.3125Q322.54688 39.359375 322.90625 38.625Q323.26562 37.875 323.90625 37.46875Q324.5625 37.046875 325.3125 37.046875Q326.54688 37.046875 327.23438 37.859375Q327.92188 38.671875 327.92188 40.1875L327.92188 40.640625L323.625 40.640625Q323.65625 41.578125 324.17188 42.15625Q324.70312 42.734375 325.51562 42.734375Q326.07812 42.734375 326.46875 42.5Q326.875 42.265625 327.1875 41.875L327.84375 42.390625Q327.04688 43.625 325.45312 43.625ZM325.3125 37.9375Q324.65625 37.9375 324.20312 38.421875Q323.76562 38.890625 323.67188 39.75L326.84375 39.75L326.84375 39.671875Q326.79688 38.84375 326.39062 38.390625Q326.0 37.9375 325.3125 37.9375ZM331.89062 38.125Q331.64062 38.09375 331.35938 38.09375Q330.28125 38.09375 329.90625 39.0L329.90625 43.5L328.82812 43.5L328.82812 37.15625L329.875 37.15625L329.89062 37.890625Q330.42188 37.046875 331.40625 37.046875Q331.71875 37.046875 331.89062 37.125L331.89062 38.125ZM334.0 43.5L332.92188 43.5L332.92188 37.15625L334.0 37.15625L334.0 43.5ZM332.82812 35.484375Q332.82812 35.21875 332.98438 35.03125Q333.15625 34.84375 333.46875 34.84375Q333.78125 34.84375 333.9375 35.03125Q334.10938 35.21875 334.10938 35.484375Q334.10938 35.734375 333.9375 35.921875Q333.78125 36.09375 333.46875 36.09375Q333.15625 36.09375 332.98438 35.921875Q332.82812 35.734375 332.82812 35.484375ZM338.35938 42.734375Q338.9375 42.734375 339.375 42.390625Q339.8125 42.03125 339.85938 41.5L340.89062 41.5Q340.85938 42.046875 340.5 42.546875Q340.15625 43.03125 339.57812 43.328125Q339.01562 43.625 338.35938 43.625Q337.0625 43.625 336.29688 42.765625Q335.54688 41.890625 335.54688 40.390625L335.54688 40.203125Q335.54688 39.28125 335.875 38.5625Q336.21875 37.84375 336.84375 37.453125Q337.48438 37.046875 338.35938 37.046875Q339.42188 37.046875 340.125 37.6875Q340.84375 38.3125 340.89062 39.34375L339.85938 39.34375Q339.8125 38.71875 339.39062 38.328125Q338.96875 37.9375 338.35938 37.9375Q337.53125 37.9375 337.07812 38.53125Q336.625 39.125 336.625 40.25L336.625 40.453125Q336.625 41.546875 337.07812 42.140625Q337.53125 42.734375 338.35938 42.734375ZM345.73438 43.5Q345.64062 43.3125 345.57812 42.828125Q344.82812 43.625 343.78125 43.625Q342.84375 43.625 342.23438 43.09375Q341.64062 42.5625 341.64062 41.734375Q341.64062 40.75 342.39062 40.203125Q343.14062 39.65625 344.51562 39.65625L345.5625 39.65625L345.5625 39.15625Q345.5625 38.59375 345.21875 38.265625Q344.89062 37.921875 344.21875 37.921875Q343.64062 37.921875 343.25 38.21875Q342.85938 38.5 342.85938 38.921875L341.76562 38.921875Q341.76562 38.4375 342.09375 38.0Q342.4375 37.5625 343.01562 37.3125Q343.59375 37.046875 344.28125 37.046875Q345.39062 37.046875 346.0 37.59375Q346.625 38.140625 346.65625 39.09375L346.65625 42.015625Q346.65625 42.890625 346.875 43.40625L346.875 43.5L345.73438 43.5ZM343.9375 42.671875Q344.45312 42.671875 344.90625 42.40625Q345.35938 42.140625 345.5625 41.71875L345.5625 40.421875L344.71875 40.421875Q342.71875 40.421875 342.71875 41.59375Q342.71875 42.09375 343.0625 42.390625Q343.40625 42.671875 343.9375 42.671875ZM349.84375 37.15625L349.875 37.953125Q350.60938 37.046875 351.78125 37.046875Q353.79688 37.046875 353.8125 39.3125L353.8125 43.5L352.71875 43.5L352.71875 39.296875Q352.71875 38.625 352.40625 38.296875Q352.10938 37.96875 351.45312 37.96875Q350.92188 37.96875 350.51562 38.25Q350.125 38.53125 349.90625 38.984375L349.90625 43.5L348.82812 43.5L348.82812 37.15625L349.84375 37.15625Z" fill-rule="nonzero"/><path stroke="#b7b7b7" stroke-width="1.0" stroke-linecap="butt" d="M310.0 195.0L406.0 139.0" fill-rule="nonzero"/><path fill="#000000" d="M431.48438 121.5L431.48438 112.96875L434.28125 112.96875Q435.67188 112.96875 436.35938 113.546875Q437.0625 114.109375 437.0625 115.234375Q437.0625 115.84375 436.71875 116.3125Q436.39062 116.765625 435.79688 117.015625Q436.5 117.203125 436.89062 117.75Q437.29688 118.28125 437.29688 119.03125Q437.29688 120.1875 436.54688 120.84375Q435.8125 121.5 434.45312 121.5L431.48438 121.5ZM432.60938 117.515625L432.60938 120.578125L434.46875 120.578125Q435.26562 120.578125 435.71875 120.171875Q436.17188 119.765625 436.17188 119.046875Q436.17188 117.515625 434.48438 117.515625L432.60938 117.515625ZM432.60938 116.609375L434.3125 116.609375Q435.04688 116.609375 435.48438 116.25Q435.9375 115.875 435.9375 115.234375Q435.9375 114.53125 435.53125 114.21875Q435.125 113.890625 434.28125 113.890625L432.60938 113.890625L432.60938 116.609375ZM439.5 121.5L438.42188 121.5L438.42188 112.5L439.5 112.5L439.5 121.5ZM445.23438 121.5Q445.14062 121.3125 445.07812 120.828125Q444.32812 121.625 443.28125 121.625Q442.34375 121.625 441.73438 121.09375Q441.14062 120.5625 441.14062 119.734375Q441.14062 118.75 441.89062 118.203125Q442.64062 117.65625 444.01562 117.65625L445.0625 117.65625L445.0625 117.15625Q445.0625 116.59375 444.71875 116.265625Q444.39062 115.921875 443.71875 115.921875Q443.14062 115.921875 442.75 116.21875Q442.35938 116.5 442.35938 116.921875L441.26562 116.921875Q441.26562 116.4375 441.59375 116.0Q441.9375 115.5625 442.51562 115.3125Q443.09375 115.046875 443.78125 115.046875Q444.89062 115.046875 445.5 115.59375Q446.125 116.140625 446.15625 117.09375L446.15625 120.015625Q446.15625 120.890625 446.375 121.40625L446.375 121.5L445.23438 121.5ZM443.4375 120.671875Q443.95312 120.671875 444.40625 120.40625Q444.85938 120.140625 445.0625 119.71875L445.0625 118.421875L444.21875 118.421875Q442.21875 118.421875 442.21875 119.59375Q442.21875 120.09375 442.5625 120.390625Q442.90625 120.671875 443.4375 120.671875ZM450.85938 120.734375Q451.4375 120.734375 451.875 120.390625Q452.3125 120.03125 452.35938 119.5L453.39062 119.5Q453.35938 120.046875 453.0 120.546875Q452.65625 121.03125 452.07812 121.328125Q451.51562 121.625 450.85938 121.625Q449.5625 121.625 448.79688 120.765625Q448.04688 119.890625 448.04688 118.390625L448.04688 118.203125Q448.04688 117.28125 448.375 116.5625Q448.71875 115.84375 449.34375 115.453125Q449.98438 115.046875 450.85938 115.046875Q451.92188 115.046875 452.625 115.6875Q453.34375 116.3125 453.39062 117.34375L452.35938 117.34375Q452.3125 116.71875 451.89062 116.328125Q451.46875 115.9375 450.85938 115.9375Q450.03125 115.9375 449.57812 116.53125Q449.125 117.125 449.125 118.25L449.125 118.453125Q449.125 119.546875 449.57812 120.140625Q450.03125 120.734375 450.85938 120.734375ZM456.09375 118.5625L455.40625 119.265625L455.40625 121.5L454.32812 121.5L454.32812 112.5L455.40625 112.5L455.40625 117.9375L455.98438 117.25L457.96875 115.15625L459.28125 115.15625L456.8125 117.8125L459.57812 121.5L458.29688 121.5L456.09375 118.5625Z" fill-rule="nonzero"/><path stroke="#b7b7b7" stroke-width="1.0" stroke-linecap="butt" d="M310.0 195.0L406.0 251.0" fill-rule="nonzero"/><path fill="#000000" d="M428.54688 277.5L427.42188 277.5L427.42188 273.5625L423.10938 273.5625L423.10938 277.5L421.98438 277.5L421.98438 268.96875L423.10938 268.96875L423.10938 272.64062L427.42188 272.64062L427.42188 268.96875L428.54688 268.96875L428.54688 277.5ZM432.0 277.5L430.92188 277.5L430.92188 271.15625L432.0 271.15625L432.0 277.5ZM430.82812 269.48438Q430.82812 269.21875 430.98438 269.03125Q431.15625 268.84375 431.46875 268.84375Q431.78125 268.84375 431.9375 269.03125Q432.10938 269.21875 432.10938 269.48438Q432.10938 269.73438 431.9375 269.92188Q431.78125 270.09375 431.46875 270.09375Q431.15625 270.09375 430.98438 269.92188Q430.82812 269.73438 430.82812 269.48438ZM437.51562 275.8125Q437.51562 275.375 437.17188 275.14062Q436.84375 274.89062 436.01562 274.71875Q435.20312 274.54688 434.71875 274.29688Q434.23438 274.04688 434.0 273.71875Q433.78125 273.375 433.78125 272.90625Q433.78125 272.125 434.4375 271.59375Q435.09375 271.04688 436.125 271.04688Q437.20312 271.04688 437.85938 271.60938Q438.53125 272.15625 438.53125 273.01562L437.45312 273.01562Q437.45312 272.57812 437.0625 272.26562Q436.6875 271.9375 436.125 271.9375Q435.53125 271.9375 435.1875 272.20312Q434.85938 272.45312 434.85938 272.85938Q434.85938 273.25 435.17188 273.45312Q435.48438 273.65625 436.29688 273.84375Q437.10938 274.01562 437.60938 274.26562Q438.10938 274.51562 438.34375 274.875Q438.59375 275.23438 438.59375 275.73438Q438.59375 276.59375 437.90625 277.10938Q437.23438 277.625 436.15625 277.625Q435.39062 277.625 434.79688 277.35938Q434.21875 277.07812 433.89062 276.59375Q433.5625 276.10938 433.5625 275.54688L434.64062 275.54688Q434.67188 276.09375 435.07812 276.42188Q435.48438 276.73438 436.15625 276.73438Q436.76562 276.73438 437.14062 276.48438Q437.51562 276.23438 437.51562 275.8125ZM445.17188 274.40625Q445.17188 275.84375 444.51562 276.73438Q443.85938 277.625 442.71875 277.625Q441.5625 277.625 440.90625 276.89062L440.90625 279.9375L439.82812 279.9375L439.82812 271.15625L440.8125 271.15625L440.85938 271.85938Q441.53125 271.04688 442.70312 271.04688Q443.84375 271.04688 444.5 271.90625Q445.17188 272.76562 445.17188 274.29688L445.17188 274.40625ZM444.09375 274.28125Q444.09375 273.20312 443.625 272.59375Q443.17188 271.96875 442.375 271.96875Q441.39062 271.96875 440.90625 272.82812L440.90625 275.85938Q441.39062 276.73438 442.39062 276.73438Q443.17188 276.73438 443.625 276.125Q444.09375 275.5 444.09375 274.28125ZM450.73438 277.5Q450.64062 277.3125 450.57812 276.82812Q449.82812 277.625 448.78125 277.625Q447.84375 277.625 447.23438 277.09375Q446.64062 276.5625 446.64062 275.73438Q446.64062 274.75 447.39062 274.20312Q448.14062 273.65625 449.51562 273.65625L450.5625 273.65625L450.5625 273.15625Q450.5625 272.59375 450.21875 272.26562Q449.89062 271.92188 449.21875 271.92188Q448.64062 271.92188 448.25 272.21875Q447.85938 272.5 447.85938 272.92188L446.76562 272.92188Q446.76562 272.4375 447.09375 272.0Q447.4375 271.5625 448.01562 271.3125Q448.59375 271.04688 449.28125 271.04688Q450.39062 271.04688 451.0 271.59375Q451.625 272.14062 451.65625 273.09375L451.65625 276.01562Q451.65625 276.89062 451.875 277.40625L451.875 277.5L450.73438 277.5ZM448.9375 276.67188Q449.45312 276.67188 449.90625 276.40625Q450.35938 276.14062 450.5625 275.71875L450.5625 274.42188L449.71875 274.42188Q447.71875 274.42188 447.71875 275.59375Q447.71875 276.09375 448.0625 276.39062Q448.40625 276.67188 448.9375 276.67188ZM454.84375 271.15625L454.875 271.95312Q455.60938 271.04688 456.78125 271.04688Q458.79688 271.04688 458.8125 273.3125L458.8125 277.5L457.71875 277.5L457.71875 273.29688Q457.71875 272.625 457.40625 272.29688Q457.10938 271.96875 456.45312 271.96875Q455.92188 271.96875 455.51562 272.25Q455.125 272.53125 454.90625 272.98438L454.90625 277.5L453.82812 277.5L453.82812 271.15625L454.84375 271.15625ZM462.0 277.5L460.92188 277.5L460.92188 271.15625L462.0 271.15625L462.0 277.5ZM460.82812 269.48438Q460.82812 269.21875 460.98438 269.03125Q461.15625 268.84375 461.46875 268.84375Q461.78125 268.84375 461.9375 269.03125Q462.10938 269.21875 462.10938 269.48438Q462.10938 269.73438 461.9375 269.92188Q461.78125 270.09375 461.46875 270.09375Q461.15625 270.09375 460.98438 269.92188Q460.82812 269.73438 460.82812 269.48438ZM466.35938 276.73438Q466.9375 276.73438 467.375 276.39062Q467.8125 276.03125 467.85938 275.5L468.89062 275.5Q468.85938 276.04688 468.5 276.54688Q468.15625 277.03125 467.57812 277.32812Q467.01562 277.625 466.35938 277.625Q465.0625 277.625 464.29688 276.76562Q463.54688 275.89062 463.54688 274.39062L463.54688 274.20312Q463.54688 273.28125 463.875 272.5625Q464.21875 271.84375 464.84375 271.45312Q465.48438 271.04688 466.35938 271.04688Q467.42188 271.04688 468.125 271.6875Q468.84375 272.3125 468.89062 273.34375L467.85938 273.34375Q467.8125 272.71875 467.39062 272.32812Q466.96875 271.9375 466.35938 271.9375Q465.53125 271.9375 465.07812 272.53125Q464.625 273.125 464.625 274.25L464.625 274.45312Q464.625 275.54688 465.07812 276.14062Q465.53125 276.73438 466.35938 276.73438Z" fill-rule="nonzero"/><path stroke="#b7b7b7" stroke-width="1.0" stroke-linecap="butt" d="M310.0 195.0L310.0 306.0" fill-rule="nonzero"/><path fill="#000000" d="M297.32812 352.8125L297.5 353.9375L297.73438 352.92188L299.42188 346.96875L300.375 346.96875L302.01562 352.92188L302.25 353.95312L302.4375 352.79688L303.76562 346.96875L304.89062 346.96875L302.82812 355.5L301.79688 355.5L300.03125 349.28125L299.90625 348.625L299.76562 349.28125L297.95312 355.5L296.92188 355.5L294.85938 346.96875L295.98438 346.96875L297.32812 352.8125ZM307.40625 349.92188Q308.125 349.04688 309.28125 349.04688Q311.29688 349.04688 311.3125 351.3125L311.3125 355.5L310.21875 355.5L310.21875 351.29688Q310.21875 350.625 309.90625 350.29688Q309.60938 349.96875 308.95312 349.96875Q308.42188 349.96875 308.01562 350.25Q307.625 350.53125 307.40625 350.98438L307.40625 355.5L306.32812 355.5L306.32812 346.5L307.40625 346.5L307.40625 349.92188ZM314.5 355.5L313.42188 355.5L313.42188 349.15625L314.5 349.15625L314.5 355.5ZM313.32812 347.48438Q313.32812 347.21875 313.48438 347.03125Q313.65625 346.84375 313.96875 346.84375Q314.28125 346.84375 314.4375 347.03125Q314.60938 347.21875 314.60938 347.48438Q314.60938 347.73438 314.4375 347.92188Q314.28125 348.09375 313.96875 348.09375Q313.65625 348.09375 313.48438 347.92188Q313.32812 347.73438 313.32812 347.48438ZM317.79688 347.625L317.79688 349.15625L318.96875 349.15625L318.96875 350.0L317.79688 350.0L317.79688 353.92188Q317.79688 354.3125 317.95312 354.5Q318.10938 354.6875 318.48438 354.6875Q318.67188 354.6875 319.0 354.625L319.0 355.5Q318.57812 355.625 318.17188 355.625Q317.45312 355.625 317.07812 355.1875Q316.70312 354.73438 316.70312 353.92188L316.70312 350.0L315.54688 350.0L315.54688 349.15625L316.70312 349.15625L316.70312 347.625L317.79688 347.625ZM322.95312 355.625Q321.65625 355.625 320.84375 354.78125Q320.04688 353.92188 320.04688 352.5L320.04688 352.3125Q320.04688 351.35938 320.40625 350.625Q320.76562 349.875 321.40625 349.46875Q322.0625 349.04688 322.8125 349.04688Q324.04688 349.04688 324.73438 349.85938Q325.42188 350.67188 325.42188 352.1875L325.42188 352.64062L321.125 352.64062Q321.15625 353.57812 321.67188 354.15625Q322.20312 354.73438 323.01562 354.73438Q323.57812 354.73438 323.96875 354.5Q324.375 354.26562 324.6875 353.875L325.34375 354.39062Q324.54688 355.625 322.95312 355.625ZM322.8125 349.9375Q322.15625 349.9375 321.70312 350.42188Q321.26562 350.89062 321.17188 351.75L324.34375 351.75L324.34375 351.67188Q324.29688 350.84375 323.89062 350.39062Q323.5 349.9375 322.8125 349.9375Z" fill-rule="nonzero"/><path stroke="#b7b7b7" stroke-width="1.0" stroke-linecap="butt" d="M310.0 195.0L214.0 251.0" fill-rule="nonzero"/><path fill="#000000" d="M130.89062 269.89062L128.14062 269.89062L128.14062 277.5L127.03125 277.5L127.03125 269.89062L124.28125 269.89062L124.28125 268.96875L130.89062 268.96875L130.89062 269.89062ZM137.4375 276.0L138.65625 271.15625L139.73438 271.15625L137.89062 277.5L137.01562 277.5L135.46875 272.6875L133.96875 277.5L133.09375 277.5L131.25 271.15625L132.32812 271.15625L133.57812 275.90625L135.0625 271.15625L135.92188 271.15625L137.4375 276.0ZM140.53125 274.26562Q140.53125 273.34375 140.89062 272.59375Q141.26562 271.84375 141.92188 271.45312Q142.57812 271.04688 143.40625 271.04688Q144.70312 271.04688 145.5 271.9375Q146.3125 272.82812 146.3125 274.32812L146.3125 274.40625Q146.3125 275.32812 145.95312 276.0625Q145.59375 276.79688 144.9375 277.21875Q144.28125 277.625 143.42188 277.625Q142.14062 277.625 141.32812 276.73438Q140.53125 275.82812 140.53125 274.34375L140.53125 274.26562ZM141.625 274.40625Q141.625 275.45312 142.10938 276.09375Q142.60938 276.73438 143.42188 276.73438Q144.25 276.73438 144.73438 276.09375Q145.21875 275.4375 145.21875 274.26562Q145.21875 273.23438 144.71875 272.59375Q144.23438 271.9375 143.40625 271.9375Q142.60938 271.9375 142.10938 272.57812Q141.625 273.20312 141.625 274.40625ZM150.53125 274.26562Q150.53125 273.34375 150.89062 272.59375Q151.26562 271.84375 151.92188 271.45312Q152.57812 271.04688 153.40625 271.04688Q154.70312 271.04688 155.5 271.9375Q156.3125 272.82812 156.3125 274.32812L156.3125 274.40625Q156.3125 275.32812 155.95312 276.0625Q155.59375 276.79688 154.9375 277.21875Q154.28125 277.625 153.42188 277.625Q152.14062 277.625 151.32812 276.73438Q150.53125 275.82812 150.53125 274.34375L150.53125 274.26562ZM151.625 274.40625Q151.625 275.45312 152.10938 276.09375Q152.60938 276.73438 153.42188 276.73438Q154.25 276.73438 154.73438 276.09375Q155.21875 275.4375 155.21875 274.26562Q155.21875 273.23438 154.71875 272.59375Q154.23438 271.9375 153.40625 271.9375Q152.60938 271.9375 152.10938 272.57812Q151.625 273.20312 151.625 274.40625ZM160.89062 272.125Q160.64062 272.09375 160.35938 272.09375Q159.28125 272.09375 158.90625 273.0L158.90625 277.5L157.82812 277.5L157.82812 271.15625L158.875 271.15625L158.89062 271.89062Q159.42188 271.04688 160.40625 271.04688Q160.71875 271.04688 160.89062 271.125L160.89062 272.125ZM166.4375 268.96875L169.23438 275.92188L172.01562 268.96875L173.48438 268.96875L173.48438 277.5L172.35938 277.5L172.35938 274.17188L172.46875 270.59375L169.65625 277.5L168.79688 277.5L166.0 270.60938L166.10938 274.17188L166.10938 277.5L164.98438 277.5L164.98438 268.96875L166.4375 268.96875ZM174.53125 274.26562Q174.53125 273.34375 174.89062 272.59375Q175.26562 271.84375 175.92188 271.45312Q176.57812 271.04688 177.40625 271.04688Q178.70312 271.04688 179.5 271.9375Q180.3125 272.82812 180.3125 274.32812L180.3125 274.40625Q180.3125 275.32812 179.95312 276.0625Q179.59375 276.79688 178.9375 277.21875Q178.28125 277.625 177.42188 277.625Q176.14062 277.625 175.32812 276.73438Q174.53125 275.82812 174.53125 274.34375L174.53125 274.26562ZM175.625 274.40625Q175.625 275.45312 176.10938 276.09375Q176.60938 276.73438 177.42188 276.73438Q178.25 276.73438 178.73438 276.09375Q179.21875 275.4375 179.21875 274.26562Q179.21875 273.23438 178.71875 272.59375Q178.23438 271.9375 177.40625 271.9375Q176.60938 271.9375 176.10938 272.57812Q175.625 273.20312 175.625 274.40625ZM184.89062 272.125Q184.64062 272.09375 184.35938 272.09375Q183.28125 272.09375 182.90625 273.0L182.90625 277.5L181.82812 277.5L181.82812 271.15625L182.875 271.15625L182.89062 271.89062Q183.42188 271.04688 184.40625 271.04688Q184.71875 271.04688 184.89062 271.125L184.89062 272.125ZM188.45312 277.625Q187.15625 277.625 186.34375 276.78125Q185.54688 275.92188 185.54688 274.5L185.54688 274.3125Q185.54688 273.35938 185.90625 272.625Q186.26562 271.875 186.90625 271.46875Q187.5625 271.04688 188.3125 271.04688Q189.54688 271.04688 190.23438 271.85938Q190.92188 272.67188 190.92188 274.1875L190.92188 274.64062L186.625 274.64062Q186.65625 275.57812 187.17188 276.15625Q187.70312 276.73438 188.51562 276.73438Q189.07812 276.73438 189.46875 276.5Q189.875 276.26562 190.1875 275.875L190.84375 276.39062Q190.04688 277.625 188.45312 277.625ZM188.3125 271.9375Q187.65625 271.9375 187.20312 272.42188Q186.76562 272.89062 186.67188 273.75L189.84375 273.75L189.84375 273.67188Q189.79688 272.84375 189.39062 272.39062Q189.0 271.9375 188.3125 271.9375ZM198.125 274.04688L196.10938 274.04688L196.10938 277.5L194.98438 277.5L194.98438 268.96875L197.8125 268.96875Q199.25 268.96875 200.01562 269.625Q200.79688 270.28125 200.79688 271.53125Q200.79688 272.32812 200.35938 272.92188Q199.9375 273.51562 199.17188 273.8125L201.17188 277.42188L201.17188 277.5L199.96875 277.5L198.125 274.04688ZM196.10938 273.125L197.84375 273.125Q198.6875 273.125 199.17188 272.70312Q199.67188 272.26562 199.67188 271.53125Q199.67188 270.75 199.20312 270.32812Q198.73438 269.90625 197.84375 269.89062L196.10938 269.89062L196.10938 273.125ZM205.73438 277.5Q205.64062 277.3125 205.57812 276.82812Q204.82812 277.625 203.78125 277.625Q202.84375 277.625 202.23438 277.09375Q201.64062 276.5625 201.64062 275.73438Q201.64062 274.75 202.39062 274.20312Q203.14062 273.65625 204.51562 273.65625L205.5625 273.65625L205.5625 273.15625Q205.5625 272.59375 205.21875 272.26562Q204.89062 271.92188 204.21875 271.92188Q203.64062 271.92188 203.25 272.21875Q202.85938 272.5 202.85938 272.92188L201.76562 272.92188Q201.76562 272.4375 202.09375 272.0Q202.4375 271.5625 203.01562 271.3125Q203.59375 271.04688 204.28125 271.04688Q205.39062 271.04688 206.0 271.59375Q206.625 272.14062 206.65625 273.09375L206.65625 276.01562Q206.65625 276.89062 206.875 277.40625L206.875 277.5L205.73438 277.5ZM203.9375 276.67188Q204.45312 276.67188 204.90625 276.40625Q205.35938 276.14062 205.5625 275.71875L205.5625 274.42188L204.71875 274.42188Q202.71875 274.42188 202.71875 275.59375Q202.71875 276.09375 203.0625 276.39062Q203.40625 276.67188 203.9375 276.67188ZM211.35938 276.73438Q211.9375 276.73438 212.375 276.39062Q212.8125 276.03125 212.85938 275.5L213.89062 275.5Q213.85938 276.04688 213.5 276.54688Q213.15625 277.03125 212.57812 277.32812Q212.01562 277.625 211.35938 277.625Q210.0625 277.625 209.29688 276.76562Q208.54688 275.89062 208.54688 274.39062L208.54688 274.20312Q208.54688 273.28125 208.875 272.5625Q209.21875 271.84375 209.84375 271.45312Q210.48438 271.04688 211.35938 271.04688Q212.42188 271.04688 213.125 271.6875Q213.84375 272.3125 213.89062 273.34375L212.85938 273.34375Q212.8125 272.71875 212.39062 272.32812Q211.96875 271.9375 211.35938 271.9375Q210.53125 271.9375 210.07812 272.53125Q209.625 273.125 209.625 274.25L209.625 274.45312Q209.625 275.54688 210.07812 276.14062Q210.53125 276.73438 211.35938 276.73438ZM217.45312 277.625Q216.15625 277.625 215.34375 276.78125Q214.54688 275.92188 214.54688 274.5L214.54688 274.3125Q214.54688 273.35938 214.90625 272.625Q215.26562 271.875 215.90625 271.46875Q216.5625 271.04688 217.3125 271.04688Q218.54688 271.04688 219.23438 271.85938Q219.92188 272.67188 219.92188 274.1875L219.92188 274.64062L215.625 274.64062Q215.65625 275.57812 216.17188 276.15625Q216.70312 276.73438 217.51562 276.73438Q218.07812 276.73438 218.46875 276.5Q218.875 276.26562 219.1875 275.875L219.84375 276.39062Q219.04688 277.625 217.45312 277.625ZM217.3125 271.9375Q216.65625 271.9375 216.20312 272.42188Q215.76562 272.89062 215.67188 273.75L218.84375 273.75L218.84375 273.67188Q218.79688 272.84375 218.39062 272.39062Q218.0 271.9375 217.3125 271.9375ZM224.51562 275.8125Q224.51562 275.375 224.17188 275.14062Q223.84375 274.89062 223.01562 274.71875Q222.20312 274.54688 221.71875 274.29688Q221.23438 274.04688 221.0 273.71875Q220.78125 273.375 220.78125 272.90625Q220.78125 272.125 221.4375 271.59375Q222.09375 271.04688 223.125 271.04688Q224.20312 271.04688 224.85938 271.60938Q225.53125 272.15625 225.53125 273.01562L224.45312 273.01562Q224.45312 272.57812 224.0625 272.26562Q223.6875 271.9375 223.125 271.9375Q222.53125 271.9375 222.1875 272.20312Q221.85938 272.45312 221.85938 272.85938Q221.85938 273.25 222.17188 273.45312Q222.48438 273.65625 223.29688 273.84375Q224.10938 274.01562 224.60938 274.26562Q225.10938 274.51562 225.34375 274.875Q225.59375 275.23438 225.59375 275.73438Q225.59375 276.59375 224.90625 277.10938Q224.23438 277.625 223.15625 277.625Q222.39062 277.625 221.79688 277.35938Q221.21875 277.07812 220.89062 276.59375Q220.5625 276.10938 220.5625 275.54688L221.64062 275.54688Q221.67188 276.09375 222.07812 276.42188Q222.48438 276.73438 223.15625 276.73438Q223.76562 276.73438 224.14062 276.48438Q224.51562 276.23438 224.51562 275.8125Z" fill-rule="nonzero"/><path stroke="#b7b7b7" stroke-width="1.0" stroke-linecap="butt" d="M310.0 195.0L214.0 139.0" fill-rule="nonzero"/><path fill="#000000" d="M165.20312 119.265625L161.625 119.265625L160.82812 121.5L159.67188 121.5L162.92188 112.96875L163.90625 112.96875L167.17188 121.5L166.01562 121.5L165.20312 119.265625ZM161.96875 118.34375L164.875 118.34375L163.42188 114.359375L161.96875 118.34375ZM172.01562 119.8125Q172.01562 119.375 171.67188 119.140625Q171.34375 118.890625 170.51562 118.71875Q169.70312 118.546875 169.21875 118.296875Q168.73438 118.046875 168.5 117.71875Q168.28125 117.375 168.28125 116.90625Q168.28125 116.125 168.9375 115.59375Q169.59375 115.046875 170.625 115.046875Q171.70312 115.046875 172.35938 115.609375Q173.03125 116.15625 173.03125 117.015625L171.95312 117.015625Q171.95312 116.578125 171.5625 116.265625Q171.1875 115.9375 170.625 115.9375Q170.03125 115.9375 169.6875 116.203125Q169.35938 116.453125 169.35938 116.859375Q169.35938 117.25 169.67188 117.453125Q169.98438 117.65625 170.79688 117.84375Q171.60938 118.015625 172.10938 118.265625Q172.60938 118.515625 172.84375 118.875Q173.09375 119.234375 173.09375 119.734375Q173.09375 120.59375 172.40625 121.109375Q171.73438 121.625 170.65625 121.625Q169.89062 121.625 169.29688 121.359375Q168.71875 121.078125 168.39062 120.59375Q168.0625 120.109375 168.0625 119.546875L169.14062 119.546875Q169.17188 120.09375 169.57812 120.421875Q169.98438 120.734375 170.65625 120.734375Q171.26562 120.734375 171.64062 120.484375Q172.01562 120.234375 172.01562 119.8125ZM175.5 121.5L174.42188 121.5L174.42188 115.15625L175.5 115.15625L175.5 121.5ZM174.32812 113.484375Q174.32812 113.21875 174.48438 113.03125Q174.65625 112.84375 174.96875 112.84375Q175.28125 112.84375 175.4375 113.03125Q175.60938 113.21875 175.60938 113.484375Q175.60938 113.734375 175.4375 113.921875Q175.28125 114.09375 174.96875 114.09375Q174.65625 114.09375 174.48438 113.921875Q174.32812 113.734375 174.32812 113.484375ZM181.23438 121.5Q181.14062 121.3125 181.07812 120.828125Q180.32812 121.625 179.28125 121.625Q178.34375 121.625 177.73438 121.09375Q177.14062 120.5625 177.14062 119.734375Q177.14062 118.75 177.89062 118.203125Q178.64062 117.65625 180.01562 117.65625L181.0625 117.65625L181.0625 117.15625Q181.0625 116.59375 180.71875 116.265625Q180.39062 115.921875 179.71875 115.921875Q179.14062 115.921875 178.75 116.21875Q178.35938 116.5 178.35938 116.921875L177.26562 116.921875Q177.26562 116.4375 177.59375 116.0Q177.9375 115.5625 178.51562 115.3125Q179.09375 115.046875 179.78125 115.046875Q180.89062 115.046875 181.5 115.59375Q182.125 116.140625 182.15625 117.09375L182.15625 120.015625Q182.15625 120.890625 182.375 121.40625L182.375 121.5L181.23438 121.5ZM179.4375 120.671875Q179.95312 120.671875 180.40625 120.40625Q180.85938 120.140625 181.0625 119.71875L181.0625 118.421875L180.21875 118.421875Q178.21875 118.421875 178.21875 119.59375Q178.21875 120.09375 178.5625 120.390625Q178.90625 120.671875 179.4375 120.671875ZM185.34375 115.15625L185.375 115.953125Q186.10938 115.046875 187.28125 115.046875Q189.29688 115.046875 189.3125 117.3125L189.3125 121.5L188.21875 121.5L188.21875 117.296875Q188.21875 116.625 187.90625 116.296875Q187.60938 115.96875 186.95312 115.96875Q186.42188 115.96875 186.01562 116.25Q185.625 116.53125 185.40625 116.984375L185.40625 121.5L184.32812 121.5L184.32812 115.15625L185.34375 115.15625Z" fill-rule="nonzero"/><path stroke="#b7b7b7" stroke-width="1.0" stroke-linecap="butt" d="M310.0 195.0L310.0 84.0" fill-rule="nonzero"/><path stroke="#4285f4" stroke-width="2.0" stroke-linecap="butt" d="M310.0 119.0C336.0 122.0 361.0 135.0 380.0 155.0C389.0 181.0 390.0 209.0 380.0 235.0C364.0 260.0 340.0 277.0 310.0 286.0C279.0 281.0 251.0 265.0 230.0 241.0C217.0 211.0 215.0 178.0 225.0 146.0C252.0 125.0 281.0 117.0 310.0 119.0Z" fill-rule="nonzero"/><path fill="#4285f4" d="M312.0 119.0C312.0 120.10457 311.10458 121.0 310.0 121.0C308.89542 121.0 308.0 120.10457 308.0 119.0C308.0 117.89543 308.89542 117.0 310.0 117.0C311.10458 117.0 312.0 117.89543 312.0 119.0Z" fill-rule="nonzero"/><path fill="#4285f4" d="M382.0 155.0C382.0 156.10457 381.10458 157.0 380.0 157.0C378.89542 157.0 378.0 156.10457 378.0 155.0C378.0 153.89543 378.89542 153.0 380.0 153.0C381.10458 153.0 382.0 153.89543 382.0 155.0Z" fill-rule="nonzero"/><path fill="#4285f4" d="M382.0 235.0C382.0 236.10457 381.10458 237.0 380.0 237.0C378.89542 237.0 378.0 236.10457 378.0 235.0C378.0 233.89543 378.89542 233.0 380.0 233.0C381.10458 233.0 382.0 233.89543 382.0 235.0Z" fill-rule="nonzero"/><path fill="#4285f4" d="M312.0 286.0C312.0 287.10458 311.10458 288.0 310.0 288.0C308.89542 288.0 308.0 287.10458 308.0 286.0C308.0 284.89542 308.89542 284.0 310.0 284.0C311.10458 284.0 312.0 284.89542 312.0 286.0Z" fill-rule="nonzero"/><path fill="#4285f4" d="M232.0 241.0C232.0 242.10457 231.10457 243.0 230.0 243.0C228.89543 243.0 228.0 242.10457 228.0 241.0C228.0 239.89543 228.89543 239.0 230.0 239.0C231.10457 239.0 232.0 239.89543 232.0 241.0Z" fill-rule="nonzero"/><path fill="#4285f4" d="M227.0 146.0C227.0 147.10457 226.10457 148.0 225.0 148.0C223.89543 148.0 223.0 147.10457 223.0 146.0C223.0 144.89543 223.89543 144.0 225.0 144.0C226.10457 144.0 227.0 144.89543 227.0 146.0Z" fill-rule="nonzero"/></svg>